<svg width="65" height="53" viewBox="0 0 65 53" fill="none" xmlns="http://www.w3.org/2000/svg">
<path d="M57.8662 36.9793C56.9793 36.9793 56.0965 36.9833 55.2096 36.9793C54.2417 36.9752 53.938 36.6917 53.9218 35.7036C53.8813 33.3467 53.4723 31.0546 52.6786 28.8435C51.4556 25.4256 49.4996 22.4774 46.7823 20.0558C46.2072 19.5455 46.1951 19.5536 45.8913 20.2461C45.0328 22.1778 44.1945 24.1176 43.3117 26.0411C43.1295 26.4421 43.1902 26.6972 43.4535 27.0212C45.8266 29.9086 46.8147 33.2495 46.6608 36.959C46.4097 43.0497 41.6959 48.7233 35.7308 49.9827C30.203 51.149 25.4244 49.7195 21.6461 45.4673C16.5921 39.7735 17.0133 30.9615 22.5775 25.7293C26.3315 22.198 30.7983 21.0844 35.8199 22.1899C36.2734 22.2912 36.5407 22.2142 36.8161 21.8417C38.0593 20.161 39.3309 18.5007 40.5863 16.8322C40.967 16.326 40.967 16.3017 40.3919 16.0628C38.2132 15.1597 35.9333 14.6738 33.5804 14.5685C27.8218 14.3174 22.6949 16.0102 18.3416 19.8006C14.7293 22.9472 12.3805 26.8835 11.3843 31.5973C11.1008 32.9458 10.9185 34.3065 10.9104 35.6915C10.9023 36.7039 10.5946 36.9874 9.57001 36.9874C7.77601 36.9874 5.97797 36.9914 4.18397 36.9874C3.2809 36.9833 2.96503 36.6877 2.97718 35.8089C3.06627 29.8276 4.70638 24.3241 8.10404 19.3714C11.3033 14.7062 15.5271 11.2599 20.6823 8.98401C25.2948 6.94703 30.1463 6.22619 35.1719 6.6919C38.683 7.01993 42.032 7.93515 45.1948 9.50236C45.8509 9.82633 45.8508 9.82633 46.3085 9.20269C46.4542 9.00426 46.5919 8.80177 46.7458 8.60739C47.4181 7.76911 48.3373 7.62737 49.3052 8.20647C50.2812 8.78962 50.5565 9.6279 50.1313 10.6444C49.9451 11.0939 49.532 11.5312 49.6494 12.001C49.7588 12.4424 50.3176 12.6125 50.678 12.9041C55.327 16.646 58.5911 21.3476 60.4579 27.009C61.4015 29.8762 61.8389 32.8405 61.8632 35.8616C61.8713 36.6431 61.5311 36.9793 60.7455 36.9874C59.7857 36.9874 58.8259 36.9793 57.8662 36.9793ZM32.3858 23.5668C30.3528 23.5709 28.4616 24.0811 26.6514 25.0044C20.2327 28.2766 17.9082 36.5581 21.9215 42.8594C22.051 43.0618 22.1887 43.4344 22.3872 43.3737C22.6828 43.2846 22.4965 42.9079 22.5329 42.6569C22.5572 42.5111 22.537 42.3612 22.541 42.2155C22.5896 39.3321 24.4403 37.0481 27.2548 36.388C27.8339 36.2503 27.842 36.2503 27.4978 35.6915C26.6717 34.3551 26.3761 32.9053 26.6798 31.3745C27.2265 28.5924 29.5915 26.6688 32.402 26.6607C35.2367 26.6526 37.5653 28.5317 38.1525 31.33C38.4886 32.9256 38.1646 34.4077 37.2858 35.7684C37.0793 36.0924 37.0429 36.226 37.5005 36.3475C40.5661 37.1493 42.2507 39.32 42.3155 42.4908C42.3196 42.6893 42.3155 42.8837 42.3236 43.0821C42.3277 43.2036 42.3196 43.3696 42.4491 43.3939C42.5706 43.4182 42.6435 43.2643 42.7124 43.1671C42.7691 43.0861 42.8258 43.0051 42.8784 42.9241C44.0812 41.0694 44.7615 39.0365 44.8951 36.8335C45.3203 29.6251 39.582 23.5425 32.3858 23.5668ZM37.1724 45.2041C37.1765 45.2041 37.1805 45.2041 37.1846 45.2041C37.1846 44.5157 37.1603 43.8272 37.1927 43.1388C37.217 42.6042 37.5491 42.3046 38.031 42.2924C38.5048 42.2803 38.8531 42.5759 38.93 43.0902C38.9624 43.3089 38.9502 43.5316 38.9502 43.7543C38.9543 44.5643 38.9502 45.3782 38.9583 46.1882C38.9583 46.338 38.9097 46.5648 39.1973 46.5364C39.7035 46.4797 40.5094 45.5767 40.5134 45.0543C40.5175 44.1431 40.5175 43.236 40.5134 42.3248C40.5134 41.6283 40.3757 40.9601 40.0518 40.3324C38.9462 38.1942 36.6865 37.5705 34.4187 38.2184C33.2483 38.5546 32.0982 38.7692 30.9562 38.3602C30.0937 38.0484 29.2392 37.9836 28.3523 38.0241C26.1209 38.1253 24.3755 39.9072 24.335 42.1304C24.3188 43.0132 24.3674 43.9042 24.3148 44.7829C24.2783 45.3904 24.4484 45.8278 24.983 46.1234C25.2341 46.2651 25.4689 46.6134 25.7362 46.504C26.0359 46.3785 25.8618 45.9857 25.8861 45.7063C25.9063 45.4633 25.8901 45.2163 25.8901 44.9692C25.8942 44.3537 25.8699 43.7381 25.9063 43.1266C25.9347 42.6002 26.2748 42.3005 26.7567 42.2884C27.2427 42.2762 27.5667 42.5597 27.6396 43.0861C27.6679 43.3048 27.6639 43.5275 27.6639 43.7503C27.6679 44.8558 27.6841 45.9614 27.6558 47.0669C27.6436 47.5165 27.8177 47.727 28.2308 47.8647C31.0089 48.788 33.7788 48.788 36.5609 47.8809C37.0469 47.723 37.2089 47.4557 37.1805 46.9657C37.1441 46.3866 37.1724 45.7953 37.1724 45.2041ZM31.4462 10.616C31.4422 10.616 31.4381 10.616 31.4381 10.616C31.4381 10.0977 31.4462 9.58335 31.4381 9.065C31.426 8.36441 31.4138 8.35631 30.7294 8.39276C30.608 8.39681 30.4824 8.40896 30.3609 8.4211C26.4368 8.74508 22.7233 9.80609 19.2608 11.673C16.6002 13.1066 14.2352 14.941 12.178 17.1603C11.6515 17.7313 11.6556 17.7394 12.2266 18.2172C12.9434 18.8166 13.6683 19.4078 14.3891 20.0031C15.033 20.5336 15.0208 20.5255 15.5959 19.9221C18.3294 17.0509 21.5853 15.0058 25.3677 13.8152C27.1577 13.2523 28.9881 12.8919 30.8631 12.7826C31.2924 12.7583 31.4867 12.6125 31.4624 12.163C31.426 11.6487 31.4462 11.1344 31.4462 10.616ZM57.8783 35.1893C58.3926 35.1893 58.911 35.1974 59.4253 35.1893C60.0449 35.1772 60.0651 35.165 60.0246 34.5697C59.972 33.8367 59.9234 33.0997 59.8303 32.3667C59.2188 27.6084 57.4207 23.3279 54.5859 19.4726C54.2134 18.9664 54.2012 18.9705 53.691 19.3957C52.9742 19.995 52.2534 20.5903 51.5447 21.1937C50.7388 21.8821 50.8157 21.7364 51.3665 22.5098C52.7434 24.4456 53.8246 26.5312 54.5495 28.7949C55.1529 30.6739 55.5741 32.5894 55.6551 34.5657C55.6753 35.0476 55.8616 35.2177 56.3273 35.1934C56.8457 35.1691 57.364 35.1893 57.8783 35.1893ZM6.93774 35.1893C7.45204 35.1893 7.9704 35.1974 8.4847 35.1893C9.1205 35.1772 9.14885 35.161 9.17314 34.5211C9.21769 33.5128 9.35943 32.5165 9.56191 31.5325C10.2382 28.2158 11.5341 25.1624 13.5468 22.4329C13.8262 22.0522 13.8221 21.8295 13.4415 21.5339C12.6073 20.8859 11.8095 20.1934 10.9914 19.5253C10.5298 19.1486 10.5217 19.1486 10.1491 19.6508C8.65074 21.6473 7.48444 23.826 6.58542 26.1545C5.54466 28.8556 4.94126 31.6499 4.81167 34.5454C4.78332 35.161 4.79142 35.1772 5.39482 35.1893C5.90508 35.1974 6.42343 35.1893 6.93774 35.1893ZM36.4881 32.5611C36.5042 30.3014 34.7062 28.4628 32.4546 28.4385C30.2475 28.4142 28.3847 30.2204 28.3523 32.4153C28.3199 34.7115 30.1382 36.5743 32.4182 36.5702C34.6414 36.5662 36.4719 34.7641 36.4881 32.5611ZM33.22 10.5634H33.224C33.224 11.0777 33.2483 11.596 33.2159 12.1103C33.1876 12.572 33.3334 12.7623 33.8193 12.7907C36.5124 12.9567 39.1203 13.5075 41.5906 14.6171C41.9429 14.775 42.1657 14.7345 42.3965 14.4105C43.0404 13.5156 43.7207 12.6408 44.3768 11.7499C44.7412 11.2518 44.7331 11.2437 44.1662 10.9683C42.4613 10.1341 40.6552 9.57121 38.8247 9.0974C37.1805 8.67623 35.504 8.4454 33.8072 8.36441C33.3617 8.34416 33.1835 8.47375 33.2119 8.93541C33.2443 9.47806 33.22 10.0207 33.22 10.5634ZM41.6676 25.1421C41.8862 25.0287 41.9267 24.8019 42.0118 24.6157C44.1014 19.8776 46.191 15.1354 48.2806 10.3973C48.3292 10.2839 48.3819 10.1746 48.4224 10.0572C48.4669 9.93163 48.4548 9.81014 48.3252 9.74129C48.2199 9.6846 48.1349 9.74939 48.0701 9.82228C47.9567 9.95187 47.8514 10.0896 47.7501 10.2273C46.8795 11.3855 46.0128 12.5477 45.1422 13.7059C42.9473 16.6338 40.7523 19.5617 38.5574 22.4896C38.193 22.9756 38.2011 22.9837 38.7397 23.2712C39.6751 23.7652 40.5984 24.2755 41.4043 24.968C41.4772 25.0328 41.5663 25.0773 41.6676 25.1421ZM48.8759 13.8314C48.6816 13.9003 48.6411 14.0461 48.5844 14.1797C48.1025 15.2569 47.6287 16.3382 47.1386 17.4073C47.005 17.6989 47.0415 17.8973 47.2885 18.1079C48.0215 18.7275 48.7545 19.3471 49.3821 20.076C49.613 20.3433 49.8074 20.319 50.0625 20.1003C50.9251 19.3673 51.7917 18.6424 52.6705 17.9337C52.9742 17.6908 52.9742 17.5085 52.711 17.2291C51.6176 16.0588 50.427 14.9977 49.1594 14.0177C49.0663 13.9448 48.961 13.8841 48.8759 13.8314Z" fill="url(#paint0_linear_2349_8601)"/>
<path d="M64.8397 46.1072C64.8154 49.7843 61.9887 52.9794 57.9229 52.9997C53.9016 53.0199 50.9494 49.8572 50.9615 45.929C50.9737 42.1628 54.0959 39.0689 57.9107 39.0729C61.7822 39.077 64.8478 42.1912 64.8397 46.1072ZM57.8378 51.2016C60.4418 51.3191 63.0457 49.0715 63.07 46.1153C63.0943 43.2076 60.7981 40.8953 57.8986 40.9034C55.0517 40.9115 52.7515 43.1712 52.7393 45.9776C52.7312 48.8407 55.0193 51.1895 57.8378 51.2016Z" fill="url(#paint1_linear_2349_8601)"/>
<path d="M0.000681175 45.9411C-0.00741813 42.1628 3.10272 39.077 6.92559 39.0729C10.7849 39.0689 13.8869 42.1871 13.8667 46.091C13.8464 49.7762 11.04 52.9592 6.96203 52.9997C2.95288 53.0361 -0.0519643 49.8572 0.000681175 45.9411ZM6.94989 51.2016C9.75224 51.1976 12.0848 48.8852 12.097 46.0991C12.1091 43.1955 9.80894 40.8912 6.90939 40.9034C4.06653 40.9155 1.77443 43.1833 1.76633 45.9897C1.76228 48.8852 4.07058 51.2057 6.94989 51.2016Z" fill="url(#paint2_linear_2349_8601)"/>
<path d="M34.1433 0.0585717C40.0112 0.370395 45.4945 1.97406 50.5727 4.94245C50.6983 5.01535 50.8319 5.08419 50.9453 5.18138C51.2814 5.46891 51.3665 5.95082 51.1599 6.31529C50.9534 6.6757 50.4918 6.85389 50.0746 6.69595C49.8236 6.60281 49.5927 6.45297 49.3578 6.31933C45.292 3.99888 40.9265 2.58556 36.2856 2.03885C35.261 1.91736 34.2324 1.83637 33.1997 1.85257C32.977 1.85662 32.7583 1.85257 32.5356 1.83637C31.9079 1.78777 31.507 1.40711 31.5232 0.888751C31.5394 0.378494 31.9646 0.0221249 32.5963 0.00187659C32.8677 -0.00622271 33.1349 0.0140255 33.4063 0.0221249C33.6533 0.0302242 33.8963 0.0464228 34.1433 0.0585717Z" fill="url(#paint3_linear_2349_8601)"/>
<path d="M54.2053 46.0181C54.2134 45.5564 54.5333 45.2122 55.0517 45.1677C55.4688 45.1312 55.8859 45.1555 56.303 45.1474C57.0036 45.1393 57.0036 45.1353 57.0117 44.4671C57.0157 44.0742 56.9995 43.6814 57.0157 43.2886C57.0441 42.6893 57.3883 42.3248 57.9067 42.3248C58.425 42.3248 58.753 42.6771 58.7814 43.2967C58.8016 43.7381 58.8016 44.1836 58.7895 44.625C58.7773 44.9976 58.9231 45.1677 59.3078 45.1515C59.7493 45.1353 60.1947 45.1353 60.6361 45.1555C61.2517 45.1879 61.5999 45.52 61.5999 46.0424C61.5999 46.5607 61.2557 46.8766 60.624 46.909C60.3041 46.9252 59.9841 46.9131 59.6642 46.9171C58.7935 46.9212 58.7935 46.9212 58.7935 47.8283C58.7935 48.1239 58.8016 48.4195 58.7895 48.7152C58.7692 49.3874 58.4574 49.7681 57.9269 49.7802C57.3802 49.7924 57.036 49.3793 57.0198 48.6747C57.0117 48.2818 56.9914 47.885 57.0238 47.4962C57.0603 47.0264 56.8497 46.8928 56.4204 46.9131C55.9547 46.9333 55.485 46.9333 55.0193 46.8969C54.509 46.8483 54.1972 46.4878 54.2053 46.0181Z" fill="url(#paint4_linear_2349_8601)"/>
<path d="M6.93369 46.9131C6.05086 46.9131 5.16399 46.9252 4.28116 46.909C3.59272 46.8969 3.24445 46.585 3.2404 46.0383C3.23635 45.4916 3.59677 45.1596 4.27711 45.1555C6.04681 45.1434 7.81246 45.1434 9.58216 45.1555C10.2382 45.1596 10.631 45.5159 10.6351 46.0383C10.6391 46.5648 10.2585 46.9009 9.58621 46.9131C8.69933 46.9252 7.81651 46.9131 6.93369 46.9131Z" fill="url(#paint5_linear_2349_8601)"/>
<defs>
<linearGradient id="paint0_linear_2349_8601" x1="32.4198" y1="0" x2="32.4198" y2="53" gradientUnits="userSpaceOnUse">
<stop stop-color="#0061B2"/>
<stop offset="1" stop-color="#00E5FF"/>
</linearGradient>
<linearGradient id="paint1_linear_2349_8601" x1="32.4198" y1="0" x2="32.4198" y2="53" gradientUnits="userSpaceOnUse">
<stop stop-color="#0061B2"/>
<stop offset="1" stop-color="#00E5FF"/>
</linearGradient>
<linearGradient id="paint2_linear_2349_8601" x1="32.4198" y1="0" x2="32.4198" y2="53" gradientUnits="userSpaceOnUse">
<stop stop-color="#0061B2"/>
<stop offset="1" stop-color="#00E5FF"/>
</linearGradient>
<linearGradient id="paint3_linear_2349_8601" x1="32.4198" y1="0" x2="32.4198" y2="53" gradientUnits="userSpaceOnUse">
<stop stop-color="#0061B2"/>
<stop offset="1" stop-color="#00E5FF"/>
</linearGradient>
<linearGradient id="paint4_linear_2349_8601" x1="32.4198" y1="0" x2="32.4198" y2="53" gradientUnits="userSpaceOnUse">
<stop stop-color="#0061B2"/>
<stop offset="1" stop-color="#00E5FF"/>
</linearGradient>
<linearGradient id="paint5_linear_2349_8601" x1="32.4198" y1="0" x2="32.4198" y2="53" gradientUnits="userSpaceOnUse">
<stop stop-color="#0061B2"/>
<stop offset="1" stop-color="#00E5FF"/>
</linearGradient>
</defs>
</svg>
