<svg width="55" height="53" viewBox="0 0 55 53" fill="none" xmlns="http://www.w3.org/2000/svg">
<path d="M7.04156 33.6178C5.28217 33.6178 3.52533 33.6229 1.76595 33.6152C0.576083 33.6101 0.0421663 33.0437 0.00402945 31.8572C-0.173943 26.4325 5.5771 22.5388 10.6035 25.2231C11.0663 25.4706 11.1908 25.4017 11.2341 24.8582C11.8138 17.2443 17.2724 11.2124 24.8083 9.82687C31.617 8.57404 38.9825 12.3376 42.0182 18.5941C42.9106 20.4312 43.5004 22.3449 43.686 24.376C43.7394 24.9756 43.8945 25.0138 44.4157 24.7536C49.4193 22.2403 55.0178 25.7615 55 31.3979C54.9974 32.6354 54.4559 33.1968 53.2202 33.1993C49.7472 33.207 46.2717 33.207 42.7987 33.1968C42.3792 33.1968 42.1097 33.2988 41.891 33.7045C38.3748 40.2238 31.4695 43.4873 24.2235 42.0915C22.7743 41.8134 21.4064 41.321 20.1098 40.6295C19.7233 40.4228 19.4564 40.4381 19.1767 40.78C18.9479 41.0582 18.6809 41.3057 18.4216 41.5532C17.9436 42.0099 17.3614 42.2395 16.7334 42.0482C16.2046 41.8874 15.9224 42.0992 15.5868 42.4386C12.5739 45.4851 9.55096 48.5241 6.52035 51.5553C5.26438 52.8107 3.51771 52.9511 2.2719 51.933C0.809989 50.7388 0.657441 48.6032 1.98206 47.2508C3.93976 45.2479 5.92796 43.2755 7.90599 41.2904C9.04501 40.1472 10.1789 39.0016 11.3281 37.8712C11.5951 37.6084 11.707 37.3762 11.5976 36.9833C11.4019 36.2765 11.6053 35.6386 12.129 35.1155C12.3833 34.8604 12.6451 34.6129 12.8918 34.3475C13.0265 34.2021 13.2502 34.077 13.1282 33.8142C13.0112 33.5642 12.7748 33.6178 12.5714 33.6178C10.7281 33.6152 8.88484 33.6178 7.04156 33.6178ZM12.2587 25.9834C12.1519 34.567 19.3191 41.6195 27.9634 41.3797C36.0891 41.1551 42.9284 34.0975 42.7402 25.9937C42.5368 17.0938 35.7485 10.5081 26.9516 10.6765C18.8818 10.8296 12.0985 17.8975 12.2587 25.9834ZM6.86867 32.592C6.86867 32.5742 6.86867 32.5563 6.86867 32.5385C8.56195 32.5385 10.2552 32.5308 11.946 32.5436C12.3782 32.5461 12.5155 32.4491 12.3248 31.9975C11.7121 30.538 11.3968 28.9994 11.2824 27.4251C11.2519 26.999 11.079 26.726 10.7307 26.4963C8.67381 25.144 6.51272 24.973 4.35926 26.1289C2.22105 27.2797 1.07695 29.1346 1.04644 31.6122C1.03627 32.4798 1.15576 32.5895 2.04308 32.592C3.65246 32.592 5.26183 32.592 6.86867 32.592ZM48.2243 32.1379C49.8769 32.1379 51.5295 32.1302 53.1821 32.143C53.655 32.1455 53.9626 32.023 53.9626 31.4744C53.9677 28.9943 52.9736 27.0296 50.8151 25.8125C48.5904 24.5571 46.3531 24.7179 44.2098 26.1238C43.9174 26.3152 43.7877 26.5499 43.7699 26.9071C43.686 28.4865 43.4241 30.0379 42.8623 31.5178C42.6487 32.0817 42.8317 32.1532 43.3301 32.1455C44.9623 32.1251 46.592 32.1379 48.2243 32.1379ZM4.07196 51.54C4.79402 51.54 5.29743 51.3104 5.72202 50.8817C7.90345 48.6848 10.0823 46.4854 12.2765 44.3038C12.5689 44.0129 12.5943 43.8317 12.2841 43.5357C11.5646 42.8468 10.8603 42.14 10.184 41.4077C9.85351 41.0505 9.64758 41.0071 9.284 41.3873C8.00769 42.7167 6.6907 44.0103 5.38896 45.3193C4.50672 46.2072 3.61941 47.0875 2.75243 47.9908C2.10156 48.6695 1.94138 49.4758 2.32021 50.3433C2.67107 51.1445 3.33465 51.5043 4.07196 51.54ZM17.1046 41.0352C17.6462 41.0046 17.9029 40.507 18.2894 40.1932C18.625 39.9202 18.6097 39.7364 18.2309 39.4889C16.7309 38.4989 15.48 37.241 14.4147 35.7917C13.7816 34.9293 13.7791 34.9318 13.0163 35.7177C12.4341 36.3173 12.4112 36.7205 12.9782 37.2997C14.0918 38.4351 15.2206 39.5527 16.3444 40.678C16.5478 40.877 16.7741 41.025 17.1046 41.0352ZM15.2435 41.1169C15.2105 41.0735 15.1698 40.9995 15.1139 40.9408C14.3003 40.1115 13.4791 39.2874 12.668 38.4581C12.4494 38.2336 12.2994 38.3714 12.1417 38.5296C11.6815 38.9965 11.2315 39.4711 10.7561 39.9227C10.5044 40.1626 10.5501 40.3284 10.779 40.5427C11.1502 40.8872 11.4781 41.2827 11.8646 41.6068C12.4138 42.0686 12.7977 43.0663 13.4714 42.9336C14.0765 42.8136 14.5444 41.9844 15.0706 41.4639C15.152 41.3822 15.2639 41.3031 15.2435 41.1169Z" fill="url(#paint0_linear_2349_8524)"/>
<path d="M10.9036 20.2654C10.8934 22.2377 9.22807 23.8835 7.23478 23.8886C5.20336 23.8937 3.56347 22.2122 3.56601 20.1301C3.56856 18.1348 5.21099 16.5273 7.24241 16.5273C9.3196 16.5299 10.9137 18.1578 10.9036 20.2654ZM7.24749 22.8246C8.65602 22.8195 9.86623 21.633 9.87894 20.245C9.89165 18.7625 8.69161 17.5352 7.23224 17.5428C5.80338 17.5505 4.62876 18.714 4.62368 20.1301C4.61859 21.656 5.7627 22.8323 7.24749 22.8246Z" fill="url(#paint1_linear_2349_8524)"/>
<path d="M44.103 19.7219C44.0953 17.7368 45.7403 16.0782 47.7412 16.0553C49.7498 16.0323 51.4532 17.7648 51.4405 19.8163C51.4278 21.804 49.7599 23.4344 47.7463 23.4293C45.7022 23.4242 44.1131 21.8065 44.103 19.7219ZM50.3778 19.7678C50.36 18.2955 49.2057 17.132 47.7616 17.1346C46.3251 17.1371 45.1098 18.3466 45.1276 19.7576C45.1479 21.1967 46.348 22.4087 47.7514 22.4112C49.165 22.4112 50.393 21.1737 50.3778 19.7678Z" fill="url(#paint2_linear_2349_8524)"/>
<path d="M28.0372 3.2387C28.0372 3.93783 28.0397 4.63441 28.0372 5.33354C28.0346 5.71117 27.9101 6.03522 27.4753 6.01736C27.0736 6.00205 26.977 5.68055 26.977 5.33354C26.9744 3.91486 26.9744 2.49619 26.9744 1.08006C26.9744 0.727945 27.0787 0.414101 27.4728 0.393688C27.9126 0.370724 28.0321 0.707532 28.0372 1.07751C28.0423 1.79961 28.0372 2.51915 28.0372 3.2387Z" fill="url(#paint3_linear_2349_8524)"/>
<path d="M37.7341 8.79093C37.2688 8.81389 37.0578 8.36481 37.3324 7.86726C37.8536 6.92317 38.3977 5.99185 38.9342 5.05542C39.1223 4.72371 39.313 4.39456 39.5037 4.06541C39.6842 3.75411 39.9689 3.67757 40.2588 3.83832C40.5486 3.99651 40.5562 4.2976 40.4088 4.56296C39.6613 5.88978 38.9036 7.20895 38.1435 8.53067C38.057 8.68121 37.9197 8.77817 37.7341 8.79093Z" fill="url(#paint4_linear_2349_8524)"/>
<path d="M17.3207 8.76796C17.0538 8.76286 16.9038 8.58935 16.7817 8.38012C16.0724 7.15026 15.3579 5.92295 14.6537 4.68799C14.4859 4.39456 14.3816 4.0552 14.7325 3.84342C15.0884 3.63164 15.3681 3.81025 15.5639 4.15726C16.2631 5.39478 16.9775 6.61953 17.669 7.86215C17.936 8.34185 17.7555 8.76541 17.3207 8.76796Z" fill="url(#paint5_linear_2349_8524)"/>
<path d="M27.5134 39.2772C20.392 39.3792 14.1477 33.3754 14.3104 25.6313C14.4503 18.9564 19.9623 12.7408 27.5948 12.7637C34.5459 12.7841 40.6681 18.4308 40.6808 26.1697C40.691 33.3218 34.7315 39.2567 27.5134 39.2772ZM15.3529 25.9222C15.4418 32.8906 20.8293 38.3127 27.5973 38.2489C34.1874 38.1876 39.7528 32.5716 39.6537 26.0957C39.5367 18.5354 33.3458 13.4884 26.9083 13.8175C20.5929 14.1365 15.33 19.4948 15.3529 25.9222Z" fill="url(#paint6_linear_2349_8524)"/>
<path d="M27.4778 33.2044C25.6981 33.2044 23.9184 33.2095 22.1412 33.2044C20.7785 33.2019 20.2725 32.6788 20.2776 31.2984C20.2929 27.5067 22.876 24.5112 26.5778 23.9907C30.0305 23.5059 33.4424 25.7206 34.4264 29.0836C34.6603 29.8874 34.7518 30.709 34.7315 31.5408C34.7061 32.6303 34.1569 33.1917 33.0687 33.1993C31.2051 33.2146 29.3415 33.2019 27.4778 33.2044ZM27.4702 32.1379C29.2677 32.1379 31.0652 32.1404 32.8628 32.1353C33.5899 32.1327 33.6992 32.0103 33.6967 31.2703C33.6865 27.7747 30.9864 25.019 27.5312 24.9781C24.1243 24.9373 21.3403 27.7236 21.3098 31.2065C21.3022 32.0383 21.3887 32.1327 22.2022 32.1353C23.9591 32.1404 25.7159 32.1379 27.4702 32.1379Z" fill="url(#paint7_linear_2349_8524)"/>
<path d="M27.5185 23.4293C25.4617 23.4421 23.8294 21.7938 23.8218 19.6913C23.8116 17.7444 25.51 16.0706 27.5109 16.0527C29.4966 16.0349 31.1593 17.7265 31.1746 19.7806C31.1898 21.7606 29.5296 23.4191 27.5185 23.4293ZM24.8794 19.704C24.8693 21.1712 26.0795 22.4163 27.5084 22.4087C28.8864 22.401 30.1144 21.1839 30.1271 19.8163C30.1398 18.3619 28.983 17.155 27.5541 17.132C26.1075 17.1116 24.8896 18.2828 24.8794 19.704Z" fill="url(#paint8_linear_2349_8524)"/>
<defs>
<linearGradient id="paint0_linear_2349_8524" x1="27.5" y1="0.392578" x2="27.5" y2="52.6078" gradientUnits="userSpaceOnUse">
<stop stop-color="#0061B2"/>
<stop offset="1" stop-color="#00E5FF"/>
</linearGradient>
<linearGradient id="paint1_linear_2349_8524" x1="27.5" y1="0.392578" x2="27.5" y2="52.6078" gradientUnits="userSpaceOnUse">
<stop stop-color="#0061B2"/>
<stop offset="1" stop-color="#00E5FF"/>
</linearGradient>
<linearGradient id="paint2_linear_2349_8524" x1="27.5" y1="0.392578" x2="27.5" y2="52.6078" gradientUnits="userSpaceOnUse">
<stop stop-color="#0061B2"/>
<stop offset="1" stop-color="#00E5FF"/>
</linearGradient>
<linearGradient id="paint3_linear_2349_8524" x1="27.5" y1="0.392578" x2="27.5" y2="52.6078" gradientUnits="userSpaceOnUse">
<stop stop-color="#0061B2"/>
<stop offset="1" stop-color="#00E5FF"/>
</linearGradient>
<linearGradient id="paint4_linear_2349_8524" x1="27.5" y1="0.392578" x2="27.5" y2="52.6078" gradientUnits="userSpaceOnUse">
<stop stop-color="#0061B2"/>
<stop offset="1" stop-color="#00E5FF"/>
</linearGradient>
<linearGradient id="paint5_linear_2349_8524" x1="27.5" y1="0.392578" x2="27.5" y2="52.6078" gradientUnits="userSpaceOnUse">
<stop stop-color="#0061B2"/>
<stop offset="1" stop-color="#00E5FF"/>
</linearGradient>
<linearGradient id="paint6_linear_2349_8524" x1="27.5" y1="0.392578" x2="27.5" y2="52.6078" gradientUnits="userSpaceOnUse">
<stop stop-color="#0061B2"/>
<stop offset="1" stop-color="#00E5FF"/>
</linearGradient>
<linearGradient id="paint7_linear_2349_8524" x1="27.5" y1="0.392578" x2="27.5" y2="52.6078" gradientUnits="userSpaceOnUse">
<stop stop-color="#0061B2"/>
<stop offset="1" stop-color="#00E5FF"/>
</linearGradient>
<linearGradient id="paint8_linear_2349_8524" x1="27.5" y1="0.392578" x2="27.5" y2="52.6078" gradientUnits="userSpaceOnUse">
<stop stop-color="#0061B2"/>
<stop offset="1" stop-color="#00E5FF"/>
</linearGradient>
</defs>
</svg>
