<svg width="56" height="55" viewBox="0 0 56 55" fill="none" xmlns="http://www.w3.org/2000/svg">
<path d="M42.9142 40.3887C41.6689 40.3917 40.4222 40.3887 39.1769 40.3887V40.3872C37.8568 40.3872 36.5352 40.3947 35.2152 40.3857C35.058 40.3842 34.8934 40.3737 34.7257 40.3557H30.7969C30.6068 40.4201 30.4168 40.3842 30.2372 40.3842C27.7182 40.3902 25.1993 40.3662 22.6818 40.3992C21.8572 40.4096 21.3318 40.0938 20.9322 39.3874C19.4475 36.7637 17.9343 34.1579 16.4287 31.5462C13.8918 27.1414 11.3564 22.7352 8.81048 18.3349C8.05914 17.0358 6.73457 16.681 5.41149 17.3995C5.01786 17.6135 4.6392 17.8574 4.24706 18.0745C3.29217 18.6028 2.7369 19.3631 2.85065 20.4991C2.88807 20.8793 2.72642 21.0993 2.40613 21.2729C1.81344 21.5917 1.23272 21.9314 0.652004 22.2712C-0.0963426 22.7082 -0.157707 22.9118 0.256877 23.6332C1.67125 26.0952 3.08862 28.5573 4.51048 31.0164C5.86948 33.3677 7.22848 35.719 8.60544 38.0598C8.85838 38.4909 8.90328 38.8366 8.63088 39.2961C7.18657 41.7417 5.77818 44.2082 4.35932 46.6688C2.98984 49.0426 1.61737 51.4133 0.256877 53.7916C-0.214581 54.6148 0.00992274 54.9799 0.973794 54.9874C2.09631 54.9964 3.21883 54.9695 4.33986 54.9994C4.82479 55.0114 5.13011 54.8452 5.36659 54.4247C5.99071 53.3171 6.66722 52.2395 7.27039 51.1215C7.51734 50.6635 7.81069 50.4839 8.32555 50.4899C10.5945 50.5108 12.8635 50.5108 15.134 50.4884C15.6279 50.4839 15.9003 50.668 16.1323 51.0915C16.743 52.2051 17.4045 53.2917 18.0346 54.3947C18.2172 54.7135 18.4163 54.9844 18.8249 54.9844C20.1464 54.9844 21.468 55.0039 22.7896 54.974C23.3314 54.962 23.523 54.5983 23.3209 54.0954C23.2656 53.9577 23.1832 53.8305 23.1099 53.7003C22.6639 52.922 22.2194 52.1422 21.7704 51.3654C21.2839 50.5243 21.2929 50.5003 22.2747 50.5003C26.0898 50.4973 29.9049 50.4973 33.7215 50.4973C36.7133 50.4973 39.7067 50.5123 42.6986 50.4839C43.3407 50.4779 43.7538 50.632 44.0651 51.2412C44.6084 52.3054 45.2535 53.3171 45.8387 54.3588C46.0812 54.7914 46.391 55.0114 46.9148 54.9964C48.0613 54.9635 49.2092 54.9949 50.3557 54.9799C51.2657 54.968 51.4588 54.6088 51.0008 53.8035C50.5203 52.9594 50.0294 52.1213 49.543 51.2786C49.1449 50.5886 49.1913 50.5033 50.0115 50.4973C51.0831 50.4899 52.1562 50.5003 53.2279 50.4929C53.9612 50.4869 54.0975 50.3537 54.1079 49.6143C54.1199 48.7672 54.1274 47.9185 54.1079 47.0714C54.0989 46.6763 54.1798 46.3515 54.4611 46.0537C54.8727 45.6181 55.0329 45.0793 55.0104 44.4747C54.988 43.852 54.9955 43.2279 55.0044 42.6053C55.0119 42.1039 54.8263 41.6803 54.5165 41.3046C54.0301 40.715 53.409 40.3917 52.6337 40.3902C51.137 40.3887 49.6418 40.3947 48.1451 40.3782C47.9415 40.3767 47.6617 40.4755 47.503 40.3542H43.5383C43.3317 40.3767 43.1237 40.3887 42.9142 40.3887ZM5.55667 51.7695C5.25733 52.2859 4.94303 52.7978 4.67063 53.3291C4.47755 53.7063 4.22162 53.8904 3.78458 53.8664C3.26224 53.838 2.7369 53.8739 2.21455 53.8529C1.75207 53.835 1.67275 53.7033 1.88977 53.3022C2.21006 52.711 2.55879 52.1347 2.89555 51.5525C4.81132 48.2299 6.72708 44.9057 8.64585 41.583C8.94069 41.0712 9.15472 40.5039 9.65761 40.0444C10.156 40.7 10.5152 41.4079 10.9074 42.0919C11.051 42.3434 10.8999 42.5679 10.7726 42.7879C9.03199 45.7798 7.29433 48.7747 5.55667 51.7695ZM14.4036 49.3629C12.5866 49.3778 10.7682 49.3748 8.95117 49.3629C8.50216 49.3599 8.40189 49.2222 8.58897 48.8914C9.57978 47.1418 10.5886 45.4041 11.6332 43.5886C12.0942 43.9912 12.2544 44.4208 12.4774 44.8024C13.2452 46.112 14.0025 47.4261 14.7479 48.7477C15.0337 49.2536 14.9784 49.3584 14.4036 49.3629ZM21.5339 53.2797C21.7898 53.7242 21.7329 53.8245 21.2046 53.8514C20.9068 53.8664 20.6059 53.8544 20.3081 53.8544C18.8443 53.832 19.1901 54.07 18.4237 52.7469C15.0427 46.9068 11.6692 41.0622 8.29263 35.2206C6.11194 31.4474 3.93276 27.6743 1.75207 23.9026C1.36144 23.2261 1.37042 23.1872 2.02298 22.816C2.34776 22.6319 2.66805 22.4388 2.99882 22.2652C3.45681 22.0242 3.47178 22.0287 3.74118 22.4957C4.56586 23.9176 5.38605 25.3409 6.20923 26.7643C9.62169 32.6732 13.0342 38.5822 16.4481 44.4896C18.1424 47.4201 19.8396 50.3492 21.5339 53.2797ZM49.3769 53.3216C49.5744 53.6853 49.4966 53.8275 49.085 53.8455C48.4878 53.8709 47.8877 53.8455 47.2905 53.8559C47.0076 53.8604 46.822 53.7377 46.6873 53.4982C46.2084 52.6526 45.7234 51.8114 45.2415 50.9688C45.0814 50.6889 45.1921 50.5348 45.4855 50.5168C45.8088 50.4958 46.1335 50.5123 46.5781 50.5123C47.4237 50.2728 47.9984 50.6814 48.3771 51.572C48.6375 52.1841 49.0551 52.7304 49.3769 53.3216ZM52.9734 48.7327C52.951 49.282 52.8986 49.3344 52.3762 49.3658C52.2026 49.3763 52.0275 49.3718 51.8524 49.3718C41.7243 49.3718 31.5976 49.3658 21.4695 49.3883C20.793 49.3898 20.3979 49.1773 20.1285 48.5801C19.9354 48.1505 19.6645 47.7554 19.4385 47.3393C19.3113 47.1043 19.3966 46.9472 19.66 46.9232C19.9085 46.9008 20.1584 46.9098 20.4084 46.9098C25.6468 46.9098 30.8852 46.9098 36.1237 46.9098C41.3366 46.9098 46.5511 46.9098 51.7641 46.9098C51.8883 46.9098 52.014 46.9083 52.1383 46.9098C52.945 46.9202 52.9704 46.9457 52.9794 47.7599C52.9809 48.0847 52.9869 48.4095 52.9734 48.7327ZM51.9587 41.5172C52.0589 41.5172 52.1577 41.5157 52.258 41.5172C53.4329 41.5321 53.867 41.9707 53.8774 43.1605C53.8819 43.5841 53.8924 44.0092 53.8714 44.4327C53.8325 45.2335 53.4224 45.672 52.6337 45.7648C52.4122 45.7917 52.1862 45.7813 51.9617 45.7813C46.5511 45.7828 41.1391 45.7813 35.7285 45.7813C30.3928 45.7813 25.0556 45.7843 19.7199 45.7783C18.3564 45.7768 18.6078 45.907 17.9388 44.7441C16.2116 41.7417 14.465 38.7513 12.7348 35.7519C10.9657 32.6882 9.2086 29.6185 7.4425 26.5532C6.42326 24.7826 5.39503 23.018 4.37428 21.249C4.25006 21.0349 4.12583 20.8134 4.051 20.5784C3.88486 20.0531 4.07794 19.5622 4.58831 19.2284C5.00439 18.956 5.43993 18.7106 5.87547 18.4681C6.76899 17.9682 7.3527 18.1239 7.86906 19.0159C8.84341 20.6967 9.80279 22.3879 10.7756 24.0702C13.5565 28.8806 16.3418 33.688 19.1212 38.4998C19.5074 39.1674 19.8711 39.8469 20.3006 40.4904C20.7376 41.143 21.3438 41.4663 22.1116 41.5097C22.3855 41.5247 22.6594 41.5172 22.9348 41.5172C32.6079 41.5172 42.284 41.5172 51.9587 41.5172Z" fill="url(#paint0_linear_2349_8600)"/>
<path d="M0.75378 13.6368C1.01121 13.547 1.25817 13.4212 1.50961 13.312C3.90133 12.2673 6.4053 11.7883 9.00954 11.9171C11.0675 12.0188 13.0581 12.4723 14.926 13.3599C15.5366 13.6502 16.0635 13.6772 16.6906 13.3868C18.4447 12.5726 20.3126 12.1476 22.2298 11.929C23.2985 11.8078 23.3449 11.8377 23.3449 12.8944C23.3464 16.8606 23.3464 20.8254 23.3464 24.7916H23.3479C23.3479 28.7818 23.3479 32.7735 23.3494 36.7637C23.3494 36.9882 23.3464 37.2142 23.3778 37.4357C23.4152 37.7126 23.5858 37.8967 23.8717 37.9086C24.189 37.9221 24.3956 37.744 24.4479 37.4372C24.4854 37.2187 24.4779 36.9897 24.4779 36.7652C24.4764 29.2084 24.4749 21.6501 24.4719 14.0933C24.4719 13.5949 24.4644 13.095 24.4764 12.5966C24.4928 11.9141 24.5916 11.8303 25.2891 11.9006C27.3845 12.1131 29.42 12.5651 31.3342 13.4646C31.8102 13.6877 32.2038 13.6547 32.6768 13.4377C35.1179 12.3197 37.6877 11.7898 40.3743 11.9111C42.6148 12.0129 44.7491 12.5741 46.7816 13.52C47.0974 13.6667 47.3967 13.7655 47.6662 13.4631C47.94 13.1548 47.7979 12.857 47.5913 12.5861C47.2142 12.0907 46.84 11.5923 46.4434 11.1118C44.116 8.28608 41.3336 6.00961 38.1008 4.2959C34.0702 2.16161 29.7582 1.06603 25.2083 0.887923C24.8446 0.872956 24.5093 0.881937 24.4345 0.394014C24.3986 0.157537 24.1995 0.0198408 23.9466 0.00188045C23.6547 -0.0190733 23.4272 0.136583 23.3853 0.394014C23.3045 0.88493 22.9677 0.869963 22.61 0.886427C20.2138 0.994189 17.8595 1.33693 15.5426 1.98799C9.32385 3.73613 4.27251 7.17105 0.402057 12.3436C0.282321 12.5038 0.153605 12.6609 0.0682938 12.839C-0.0334814 13.0501 -0.0319847 13.2716 0.144625 13.4631C0.315248 13.6487 0.524785 13.7176 0.75378 13.6368ZM27.6569 2.27985C30.9241 2.6181 33.9953 3.55054 36.9124 4.99336C40.0689 6.55441 42.8154 8.65577 45.0993 11.3363C44.9257 11.5833 44.7596 11.4965 44.5964 11.4501C42.6911 10.8978 40.7469 10.6778 38.7638 10.7661C37.0351 10.8439 35.3618 11.1882 33.7289 11.7509C33.5404 11.8153 33.3548 11.8886 33.1677 11.9575C32.3789 12.2448 32.3729 12.2463 32.1574 11.477C31.8222 10.2767 31.4255 9.09879 30.9526 7.94633C30.1623 6.02158 29.2179 4.19412 27.7467 2.68695C27.6793 2.61661 27.6105 2.53878 27.6569 2.27985ZM22.7432 2.25441C23.761 1.87873 24.6964 2.00895 25.6169 2.49238C26.4715 2.94139 27.1375 3.61041 27.7077 4.37821C29.0772 6.22064 29.9378 8.31003 30.6502 10.4698C30.7356 10.7287 30.8059 10.9936 30.8792 11.257C30.9376 11.4651 31.1307 11.7 30.9541 11.8856C30.773 12.0772 30.538 11.8886 30.3389 11.8153C29.4723 11.498 28.5833 11.2675 27.6838 11.0699C26.437 10.7975 25.1723 10.7257 23.7385 10.7302C21.7105 10.6838 19.5927 11.0699 17.5317 11.7943C17.4374 11.8273 17.3476 11.8722 17.2518 11.8991C16.8851 12.0024 16.7669 11.9156 16.8612 11.5489C17.0902 10.6568 17.3776 9.78128 17.7188 8.92517C18.4028 7.20996 19.1422 5.52468 20.347 4.09384C21.0085 3.30658 21.7389 2.62409 22.7432 2.25441ZM11.4985 4.71198C14.2525 3.42482 17.1381 2.5717 20.1719 2.28434C20.2258 2.54027 20.124 2.62409 20.0402 2.7109C18.313 4.51591 17.2878 6.72353 16.4481 9.02994C16.1503 9.84713 15.9078 10.6868 15.6504 11.5189C15.4274 12.2418 15.4334 12.2403 14.7509 11.9874C13.2991 11.4486 11.8173 11.049 10.2713 10.8724C8.09506 10.6239 5.9503 10.7616 3.825 11.284C3.49572 11.3648 3.17693 11.5309 2.6007 11.4561C5.14059 8.47766 8.10255 6.29997 11.4985 4.71198Z" fill="url(#paint1_linear_2349_8600)"/>
<defs>
<linearGradient id="paint0_linear_2349_8600" x1="27.5062" y1="0" x2="27.5062" y2="55" gradientUnits="userSpaceOnUse">
<stop stop-color="#0061B2"/>
<stop offset="1" stop-color="#00E5FF"/>
</linearGradient>
<linearGradient id="paint1_linear_2349_8600" x1="27.5062" y1="0" x2="27.5062" y2="55" gradientUnits="userSpaceOnUse">
<stop stop-color="#0061B2"/>
<stop offset="1" stop-color="#00E5FF"/>
</linearGradient>
</defs>
</svg>
