<svg width="50" height="55" viewBox="0 0 50 55" fill="none" xmlns="http://www.w3.org/2000/svg">
<path d="M49.6413 54.9399C48.0331 54.7019 46.921 53.5447 45.4456 53.1088C44.0254 53.4846 42.8957 54.6193 41.275 54.9749C40.0752 54.3613 38.7977 53.71 37.4701 53.0312C36.1776 53.6875 34.9002 54.3362 33.6277 54.98C32.1047 54.5967 30.9199 53.5822 29.4195 53.0662C28.1871 53.7 26.9097 54.3537 25.6522 55C24.1192 54.5717 22.9319 53.5747 21.4741 53.0537C20.2042 53.7 18.9267 54.3512 17.6717 54.99C16.1363 54.5692 14.954 53.5547 13.5738 53.0888C12.0859 53.5447 10.9512 54.6643 9.17776 54.995C8.79451 51.3329 9.05252 47.7359 9.00492 44.154C8.95733 40.5169 8.9949 36.8773 8.9949 33.2378C8.9949 29.6608 8.9949 26.0864 8.9949 22.5095C8.9949 18.8749 8.9949 15.2404 8.9949 11.4154C6.2095 11.0046 3.45666 11.4705 0.520961 11.1098C0.455835 8.49226 0.142727 5.9373 0.708826 3.42242C1.11461 1.61642 2.46724 0.55937 4.25571 0.176126C5.04223 0.00830038 5.87635 0.00830038 6.68793 0.00830038C19.0469 -0.00171906 31.4059 -0.00171906 43.7674 0.00329066C44.4562 0.00329066 45.1526 0.00329065 45.8314 0.10599C48.1634 0.454165 49.7715 2.20757 49.9544 4.55462C49.9894 4.99047 49.9719 5.43132 49.9719 5.87218C49.9719 21.495 49.9744 37.1153 49.9619 52.7381C49.9644 53.4119 50.1347 54.1183 49.6413 54.9399ZM48.6418 53.2441C48.9449 52.7807 48.8572 52.3323 48.8572 51.904C48.8623 36.4014 48.8698 20.8988 48.8547 5.39625C48.8522 2.55324 47.4395 1.143 44.5263 1.13549C33.0416 1.11044 21.5543 1.12296 10.0695 1.13549C9.67873 1.13549 9.17024 0.957642 8.90222 1.62894C10.0344 2.82877 10.0995 4.37427 10.097 5.97488C10.0795 20.9765 10.0845 35.9756 10.0945 50.9772C10.0945 51.7111 9.94675 52.4676 10.2624 53.2416C11.4822 53.0788 12.3539 52.1094 13.6665 51.8339C14.8989 52.45 16.2314 53.1188 17.574 53.7901C18.9041 53.0963 20.1766 52.435 21.5067 51.7412C22.8693 52.4425 24.1969 53.1264 25.5019 53.7977C26.8746 53.0913 28.1521 52.4325 29.4771 51.7512C30.8398 52.445 32.1724 53.1239 33.4173 53.7601C34.9603 53.2015 36.1476 52.2096 37.5929 51.8138C38.923 52.4951 40.2005 53.1489 41.3827 53.7526C42.9408 53.219 44.108 52.1745 45.5258 51.8464C46.6755 52.2196 47.5372 53.0387 48.6418 53.2441ZM8.94481 10.1279C8.94481 8.03137 9.05502 6.16525 8.91224 4.31916C8.77448 2.55574 7.22898 1.27075 5.48058 1.17807C3.66206 1.08038 1.96376 2.29524 1.69073 4.11878C1.40267 6.02497 1.51539 7.95872 1.63562 9.67455C2.0364 10.1179 2.35452 10.1229 2.66512 10.1229C4.65899 10.1304 6.65536 10.1279 8.94481 10.1279Z" fill="url(#paint0_linear_2349_8599)"/>
<path d="M18.2779 26.4471C18.2328 20.2526 23.1123 15.2955 29.3043 15.2404C35.4888 15.1852 40.506 20.0822 40.5662 26.2342C40.6288 32.4337 35.7318 37.491 29.6099 37.5436C23.2626 37.5962 18.323 32.7618 18.2779 26.4471ZM19.3801 26.372C19.355 31.8952 23.7986 36.3588 29.3945 36.4315C34.8451 36.5016 39.439 31.9277 39.4615 26.4045C39.4841 20.9765 35.0129 16.4151 29.6124 16.3525C23.9464 16.2899 19.4051 20.736 19.3801 26.372Z" fill="url(#paint1_linear_2349_8599)"/>
<path d="M25.3917 29.1298C26.7093 29.225 27.4632 30.4123 28.7357 30.2595C29.0263 29.1924 28.9035 28.1429 28.8259 27.1485C28.365 26.5448 27.6787 26.5323 27.1276 26.2567C25.8376 25.6105 25.0536 24.6511 25.1012 23.1482C25.1487 21.6528 25.9378 20.6559 27.3079 20.1875C28.2022 19.8844 29.0463 19.5888 29.2843 18.7346C30.2862 18.7597 30.2236 19.6138 30.7471 19.8418C33.54 20.7586 33.6327 20.8487 33.2695 22.3316C32.7811 22.6547 32.3152 22.5145 31.8492 22.2765C31.4585 22.0761 31.0702 21.8682 30.5091 21.8857C30.0658 22.8727 30.3188 23.9047 30.3463 25.0143C32.2525 25.7633 34.299 26.4471 34.1187 29.0371C33.9684 31.1813 32.3602 31.9002 30.6369 32.311C30.0958 32.8696 30.6419 34.0393 29.4822 34.0619C28.5604 33.7964 29.0689 32.8119 28.5529 32.301C27.5234 31.9553 26.3987 31.7298 25.4644 31.056C24.6528 30.4774 24.3722 29.8537 25.3917 29.1298ZM28.7532 21.6653C27.6787 21.8106 27.1501 22.289 27.2027 23.1607C27.2553 24.0149 27.8064 24.4758 28.7608 24.5008C28.9737 23.584 28.9486 22.6848 28.7532 21.6653ZM30.4841 30.4073C31.6038 30.2119 32.1148 29.6734 31.992 28.7315C31.8843 27.9225 31.3433 27.4891 30.424 27.4841C30.186 28.461 30.1785 29.3502 30.4841 30.4073Z" fill="url(#paint2_linear_2349_8599)"/>
<defs>
<linearGradient id="paint0_linear_2349_8599" x1="25.1841" y1="0" x2="25.1841" y2="55" gradientUnits="userSpaceOnUse">
<stop stop-color="#0061B2"/>
<stop offset="1" stop-color="#00E5FF"/>
</linearGradient>
<linearGradient id="paint1_linear_2349_8599" x1="25.1841" y1="0" x2="25.1841" y2="55" gradientUnits="userSpaceOnUse">
<stop stop-color="#0061B2"/>
<stop offset="1" stop-color="#00E5FF"/>
</linearGradient>
<linearGradient id="paint2_linear_2349_8599" x1="25.1841" y1="0" x2="25.1841" y2="55" gradientUnits="userSpaceOnUse">
<stop stop-color="#0061B2"/>
<stop offset="1" stop-color="#00E5FF"/>
</linearGradient>
</defs>
</svg>
