<svg width="53" height="53" viewBox="0 0 53 53" fill="none" xmlns="http://www.w3.org/2000/svg">
<path d="M52.8534 27.0182C52.8317 30.412 52.1287 33.6647 50.8267 36.7915C49.6138 39.7057 47.8822 42.2879 45.7709 44.6227C45.6515 44.7529 45.5322 44.8766 45.3586 44.946C45.057 45.0675 44.8031 44.9829 44.5817 44.7789C44.3496 44.5641 44.2736 44.2256 44.4212 43.9587C44.521 43.7764 44.662 43.6115 44.8009 43.4531C46.4283 41.6261 47.8214 39.6384 48.8868 37.4273C50.0195 35.0729 50.7682 32.6101 51.1023 30.0171C51.8292 24.4057 50.8441 19.1219 47.995 14.2288C44.9007 8.91253 40.4134 5.23887 34.6023 3.2035C31.8617 2.2444 29.0365 1.83863 26.131 1.89071C22.6418 1.9558 19.3197 2.71093 16.1516 4.1626C15.1404 4.62479 14.1575 5.14123 13.2244 5.7488C13.0812 5.84211 12.9206 5.92023 12.7557 6.15675C13.8233 6.20665 14.8084 6.25439 15.7914 6.29779C15.9845 6.30647 16.1798 6.29562 16.3729 6.31515C16.8677 6.36506 17.1541 6.66233 17.1389 7.09198C17.1259 7.52379 16.77 7.86229 16.2775 7.82975C15.2728 7.76465 14.266 7.77116 13.2635 7.70606C12.4866 7.65615 11.712 7.64747 10.9352 7.62143C9.86973 7.58455 9.57679 7.14622 9.94568 6.15458C10.5229 4.60309 11.1022 3.04944 11.6816 1.49795C11.7619 1.28313 11.8357 1.06614 12.0136 0.905569C12.2262 0.712447 12.4693 0.619141 12.7427 0.725466C13.0204 0.833962 13.207 1.03793 13.2483 1.3504C13.2765 1.56739 13.2201 1.76702 13.142 1.96665C12.8403 2.73914 12.5474 3.5138 12.2523 4.28628C12.2284 4.34921 12.2154 4.41865 12.185 4.52714C12.4172 4.54667 12.5561 4.40346 12.7058 4.31232C14.5654 3.1818 16.5118 2.23789 18.5993 1.5956C20.5587 0.992365 22.5507 0.564893 24.6056 0.449888C25.3629 0.40649 26.1202 0.367431 26.8796 0.365261C29.9088 0.360922 32.8491 0.87736 35.6721 1.97099C43.9026 5.15642 49.2536 11.0325 51.8379 19.4409C52.3609 21.1443 52.6408 22.9041 52.7601 24.6878C52.81 25.4668 52.8578 26.2414 52.8534 27.0182Z" fill="url(#paint0_linear_2349_8566)"/>
<path d="M40.3027 47.0812C39.7884 47.0313 39.3024 46.9836 38.8163 46.9402C38.3411 46.8989 37.8659 46.8729 37.3928 46.8295C36.9285 46.7861 36.6008 46.4541 36.6117 46.0548C36.6204 45.7011 36.9784 45.3713 37.4167 45.3583C37.7856 45.3475 38.1588 45.3692 38.5277 45.3974C39.8644 45.4972 41.201 45.6013 42.5355 45.7098C43.0324 45.7511 43.2972 46.0462 43.3145 46.5387C43.321 46.721 43.269 46.8859 43.2125 47.053C42.7156 48.522 42.2165 49.9889 41.724 51.4601C41.6372 51.7161 41.533 51.9527 41.2878 52.1002C40.8191 52.3801 40.2463 52.1045 40.1747 51.5599C40.1486 51.3624 40.1985 51.178 40.2636 50.9914C40.4741 50.3925 40.6824 49.7936 40.8755 49.1904C40.9255 49.032 41.0491 48.8757 40.9623 48.6891C40.7671 48.7 40.6347 48.8236 40.4893 48.9148C37.369 50.8764 33.9687 52.0894 30.332 52.6188C28.3725 52.9052 26.4001 52.9335 24.4211 52.7859C20.6303 52.5038 17.0782 51.434 13.7799 49.5679C8.55043 46.6125 4.74224 42.3595 2.37921 36.8284C1.3051 34.3135 0.65847 31.6879 0.4328 28.9603C0.276567 27.0725 0.306945 25.1912 0.541295 23.3099C1.17708 18.165 3.16688 13.6125 6.51722 9.65464C6.72336 9.41161 6.93818 9.17726 7.15951 8.94942C7.55444 8.54147 7.97106 8.49157 8.32259 8.79535C8.67628 9.10131 8.67845 9.52444 8.29438 9.95625C7.54142 10.8003 6.82318 11.6683 6.18089 12.6014C4.12381 15.5807 2.80017 18.8529 2.19911 22.4202C1.84758 24.5011 1.74993 26.5951 1.92136 28.6934C2.18175 31.8723 3.03452 34.8972 4.47968 37.7441C7.05536 42.8173 10.9352 46.5626 16.0475 49.0254C18.3172 50.1191 20.7236 50.7787 23.2233 51.1237C24.9962 51.3689 26.7777 51.4406 28.5548 51.293C31.3496 51.0608 34.0468 50.4012 36.6095 49.2403C37.8008 48.7 38.953 48.0946 40.0466 47.3763C40.1334 47.3221 40.2376 47.2808 40.3027 47.0812Z" fill="url(#paint1_linear_2349_8566)"/>
<path d="M24.1499 13.1872C22.2404 11.9786 21.2639 10.3208 21.4006 8.08579C21.4787 6.78602 22.0407 5.70974 22.9695 4.83093C25.0873 2.82377 28.429 2.95179 30.3732 4.9633C31.5753 6.20665 31.9898 7.72776 31.7381 9.40293C31.4885 11.0651 30.5446 12.2998 29.0712 13.146C29.0886 13.1829 29.106 13.2176 29.1233 13.2545C29.4466 13.2632 29.77 13.274 30.0954 13.2806C31.9008 13.3131 33.3112 14.1203 34.394 15.5221C35.0906 16.4269 35.4378 17.4793 35.4681 18.6207C35.492 19.5906 35.4812 20.5628 35.4768 21.5327C35.4746 22.2748 35.2707 22.4831 34.5416 22.4853C33.1832 22.4896 31.8227 22.4875 30.4643 22.4875C26.6692 22.4875 22.874 22.4875 19.0788 22.4875C18.9378 22.4875 18.7967 22.4875 18.6557 22.4875C17.9157 22.481 17.7183 22.2857 17.7161 21.5436C17.7118 20.5736 17.7096 19.6015 17.7183 18.6315C17.7422 16.0515 19.5909 13.8339 22.1297 13.3391C22.5659 13.2545 23.0085 13.2892 23.449 13.2762C23.653 13.2654 23.8635 13.3066 24.1499 13.1872ZM33.8863 20.9772C33.9253 20.8666 33.9557 20.8188 33.9579 20.7689C34.0013 19.8879 34.049 18.9961 33.895 18.1303C33.6042 16.505 32.6798 15.3854 31.0611 14.908C30.6379 14.7821 30.1953 14.7518 29.7526 14.7518C27.778 14.7518 25.8012 14.7539 23.8266 14.7496C23.4208 14.7496 23.0172 14.7756 22.6136 14.8299C20.8451 15.0729 19.3826 16.6135 19.2437 18.3929C19.1873 19.1154 19.2112 19.838 19.2134 20.5606C19.2134 20.6973 19.2003 20.847 19.3587 20.975C24.1738 20.9772 29.0192 20.9772 33.8863 20.9772ZM26.667 12.1305C28.442 12.1392 30.3472 10.8524 30.3667 8.561C30.384 6.46053 28.711 4.91122 26.6388 4.88952C24.6425 4.86782 22.9738 6.49525 22.9695 8.43515C22.9673 10.4901 24.6056 12.1283 26.667 12.1305Z" fill="url(#paint2_linear_2349_8566)"/>
<path d="M38.4149 27.9665C37.0109 26.9271 36.3166 25.623 36.3665 23.9652C36.4034 22.7826 36.8699 21.7714 37.7053 20.9447C39.502 19.1675 42.3164 19.0937 44.176 20.7646C45.2848 21.7606 45.7426 23.0343 45.6645 24.5142C45.5864 25.9897 44.8443 27.0964 43.6856 28.0034C43.9221 28.1705 44.1434 28.1206 44.3387 28.1574C47.1488 28.7043 48.7067 31.0825 48.8478 33.1764C48.8999 33.9359 48.8999 34.6932 48.8934 35.4505C48.889 36.147 48.5527 36.364 47.9429 36.364C43.3015 36.351 38.6579 36.3575 34.0165 36.3554C33.3286 36.3554 33.0791 36.1232 33.0877 35.4418C33.1008 34.5435 33.0313 33.6451 33.1615 32.7468C33.513 30.3122 35.5614 28.4894 37.7183 28.114C37.9201 28.0815 38.1176 28.0316 38.4149 27.9665ZM47.344 34.78C47.4005 34.3612 47.3918 33.9229 47.3636 33.4867C47.3093 32.6426 47.0489 31.868 46.526 31.1888C45.6776 30.0908 44.5362 29.5961 43.1735 29.5831C41.852 29.5701 40.5284 29.5809 39.2069 29.5787C38.8705 29.5787 38.5386 29.6004 38.2066 29.6438C35.8392 29.9433 34.1532 31.9982 34.7 34.806C35.2121 34.921 46.884 34.908 47.344 34.78ZM37.8963 24.1409C37.8464 25.8704 39.4174 27.2331 41.0708 27.2135C42.5963 27.194 44.1716 26.0722 44.1695 24.18C44.1673 22.0578 42.3099 21.0423 40.9623 21.0727C39.413 21.1052 37.8203 22.4549 37.8963 24.1409Z" fill="url(#paint3_linear_2349_8566)"/>
<path d="M14.9017 27.999C15.1947 28.177 15.4507 28.1444 15.6807 28.1922C18.2998 28.7368 19.8166 30.974 20.0357 32.9421C20.1334 33.8252 20.103 34.7041 20.0987 35.585C20.0965 36.108 19.8209 36.3445 19.2936 36.3575C18.8705 36.3684 18.4474 36.3619 18.0221 36.3619C13.8211 36.3619 9.62019 36.3619 5.41925 36.3619C4.46883 36.3619 4.28656 36.1818 4.29307 35.2118C4.29741 34.4545 4.25835 33.695 4.35382 32.9377C4.57298 31.1975 5.44963 29.876 6.9078 28.9299C7.56529 28.5025 8.27485 28.203 9.06035 28.0989C9.21442 28.0793 9.37499 28.0576 9.55943 27.9274C8.19239 26.9184 7.49585 25.5687 7.57831 23.8806C7.63472 22.7066 8.12512 21.6998 8.98007 20.8861C10.7464 19.2087 13.4479 19.1176 15.2967 20.6908C16.4489 21.6716 16.9632 22.9583 16.8916 24.4469C16.8199 25.9159 16.0561 27.0595 14.9017 27.999ZM5.84021 34.7909C6.42175 34.921 18.0958 34.908 18.558 34.7757C18.5646 34.1789 18.6101 33.5692 18.5038 32.9573C18.4148 32.4473 18.2477 31.97 17.9722 31.5317C17.1476 30.2254 15.9194 29.6286 14.4222 29.5896C12.925 29.5505 11.4234 29.5484 9.92615 29.5896C8.21843 29.6373 6.92733 30.4141 6.16787 31.9743C5.73172 32.8661 5.7903 33.8209 5.84021 34.7909ZM12.2262 21.1703C10.4578 21.1204 9.06903 22.6285 9.08856 24.2082C9.11243 26.2284 10.9221 27.3112 12.2696 27.2938C13.5521 27.2765 15.3704 26.2675 15.3791 24.2516C15.3878 22.3855 13.8276 21.1052 12.2262 21.1703Z" fill="url(#paint4_linear_2349_8566)"/>
<path d="M29.3208 37.1734C29.6267 37.373 29.8676 37.3188 30.0889 37.3665C32.5995 37.8917 34.4613 40.118 34.5134 42.6763C34.5264 43.3468 34.5242 44.0173 34.5177 44.6878C34.5112 45.3084 34.266 45.5536 33.6519 45.5558C28.9779 45.5579 24.304 45.5579 19.6278 45.5558C18.9899 45.5558 18.7664 45.3409 18.7577 44.7052C18.7468 43.9652 18.7338 43.2231 18.7664 42.4832C18.8423 40.6605 19.6972 39.263 21.1793 38.2388C21.9149 37.7311 22.7329 37.4164 23.6291 37.3231C23.7311 37.3123 23.8439 37.3166 23.9459 37.1517C22.9304 36.3771 22.2317 35.3724 22.069 34.0704C21.9691 33.2784 21.9973 32.4864 22.3163 31.7291C22.6093 31.0347 23.0367 30.4358 23.6074 29.9476C25.556 28.2855 28.3465 28.5307 29.9652 30.1386C30.9743 31.1411 31.4256 32.3801 31.3149 33.7884C31.2064 35.201 30.4687 36.2946 29.3208 37.1734ZM32.9142 43.9544C32.9749 43.4227 32.9402 42.8846 32.8881 42.34C32.7275 40.6887 31.3193 38.8811 29.0821 38.7965C27.4265 38.7336 25.7621 38.7162 24.1087 38.7987C21.5113 38.9289 19.7992 41.1075 20.3222 43.9717C20.8278 44.0998 32.4389 44.0911 32.9142 43.9544ZM26.7516 30.2796C25.0504 30.2145 23.5966 31.51 23.5163 33.1656C23.4382 34.7909 24.8421 36.3185 26.4478 36.3836C28.34 36.4595 29.7005 35.1033 29.8025 33.567C29.9327 31.5946 28.2163 30.2319 26.7516 30.2796Z" fill="url(#paint5_linear_2349_8566)"/>
<defs>
<linearGradient id="paint0_linear_2349_8566" x1="26.5948" y1="0.365234" x2="26.5948" y2="52.8735" gradientUnits="userSpaceOnUse">
<stop stop-color="#0061B2"/>
<stop offset="1" stop-color="#00E5FF"/>
</linearGradient>
<linearGradient id="paint1_linear_2349_8566" x1="26.5948" y1="0.365234" x2="26.5948" y2="52.8735" gradientUnits="userSpaceOnUse">
<stop stop-color="#0061B2"/>
<stop offset="1" stop-color="#00E5FF"/>
</linearGradient>
<linearGradient id="paint2_linear_2349_8566" x1="26.5948" y1="0.365234" x2="26.5948" y2="52.8735" gradientUnits="userSpaceOnUse">
<stop stop-color="#0061B2"/>
<stop offset="1" stop-color="#00E5FF"/>
</linearGradient>
<linearGradient id="paint3_linear_2349_8566" x1="26.5948" y1="0.365234" x2="26.5948" y2="52.8735" gradientUnits="userSpaceOnUse">
<stop stop-color="#0061B2"/>
<stop offset="1" stop-color="#00E5FF"/>
</linearGradient>
<linearGradient id="paint4_linear_2349_8566" x1="26.5948" y1="0.365234" x2="26.5948" y2="52.8735" gradientUnits="userSpaceOnUse">
<stop stop-color="#0061B2"/>
<stop offset="1" stop-color="#00E5FF"/>
</linearGradient>
<linearGradient id="paint5_linear_2349_8566" x1="26.5948" y1="0.365234" x2="26.5948" y2="52.8735" gradientUnits="userSpaceOnUse">
<stop stop-color="#0061B2"/>
<stop offset="1" stop-color="#00E5FF"/>
</linearGradient>
</defs>
</svg>
