<svg width="86" height="80" viewBox="0 0 86 80" fill="none" xmlns="http://www.w3.org/2000/svg">
<g clip-path="url(#clip0_402_5262)">
<path d="M51.8205 21.7867C51.3127 21.7867 50.9014 21.3837 50.9014 20.886V3.65627C50.9014 3.15861 51.3127 2.75555 51.8205 2.75555C52.3284 2.75555 52.7397 3.15861 52.7397 3.65627V20.887C52.7397 21.3847 52.3284 21.7878 51.8205 21.7878V21.7867Z" fill="#0061B2"/>
<path d="M71.3855 13.1714H51.8791C51.3713 13.1714 50.96 12.7683 50.96 12.2707V0.900713C50.96 0.403059 51.3713 0 51.8791 0C51.9883 0 52.0932 0.0185078 52.1908 0.053467C52.2884 0.019536 52.3933 0 52.5024 0H71.3865C71.7433 0 72.0686 0.202558 72.2197 0.520275C72.3708 0.837992 72.3204 1.21226 72.0906 1.4796L67.7109 6.5857L72.0906 11.6918C72.3204 11.9602 72.3708 12.3344 72.2197 12.6511C72.0686 12.9688 71.7443 13.1714 71.3865 13.1714H71.3855ZM52.7973 11.371H69.4128L65.8053 7.16561C65.5178 6.83041 65.5178 6.34201 65.8053 6.00681L69.4128 1.80143H52.7973V11.371Z" fill="#0061B2"/>
<path d="M49.6469 80H1.43405C0.919894 80 0.457156 79.7399 0.197981 79.3049C-0.0611941 78.87 -0.0664405 78.3487 0.18539 77.9096L24.2908 35.7324C24.5437 35.2892 25.0232 35.0147 25.5405 35.0147C26.0578 35.0147 26.5373 35.2903 26.7902 35.7324L34.7795 49.7109C35.0271 50.1448 34.8697 50.6939 34.4269 50.9366C33.9841 51.1792 33.4238 51.025 33.1762 50.5911L25.5405 37.2305L2.12553 78.1986H49.6469C50.1548 78.1986 50.5661 78.6016 50.5661 79.0993C50.5661 79.5969 50.1548 80 49.6469 80Z" fill="#0061B2"/>
<path d="M84.493 80H19.2647C18.7244 80 18.2396 79.7275 17.9657 79.271C17.6929 78.8145 17.6866 78.2665 17.951 77.8048L50.5651 20.7401C50.8306 20.2743 51.3343 19.9854 51.8789 19.9854C52.4234 19.9854 52.926 20.2743 53.1926 20.7401L85.8067 77.8038C86.0711 78.2654 86.0648 78.8135 85.792 79.271C85.5192 79.7275 85.0333 80 84.493 80ZM19.8324 78.1996H83.9263L51.8789 22.1271L19.8314 78.1996H19.8324Z" fill="#0061B2"/>
<path d="M60.3263 44.3498C59.2801 44.3498 58.2791 44.1256 57.446 43.6979C57.2267 43.5848 57.0263 43.4645 56.8321 43.3473C56.4355 43.1087 56.0934 42.9031 55.7199 42.8393C55.0347 42.7221 54.3422 43.0573 53.5416 43.446C53.1575 43.6321 52.7619 43.8244 52.338 43.9776C50.5952 44.6079 48.3937 44.4259 46.8607 43.5231C46.7023 43.4295 46.5585 43.3339 46.419 43.2414C46.1986 43.0954 46.0076 42.9689 45.8062 42.8805C45.1546 42.5946 44.1945 42.6162 42.95 42.9422C41.8619 43.228 40.8315 43.6218 39.8882 44.1133C39.4401 44.3467 38.884 44.1801 38.6458 43.7411C38.4076 43.302 38.5776 42.7571 39.0257 42.5237C40.0917 41.9685 41.2523 41.5243 42.4736 41.2035C44.1588 40.7613 45.4945 40.7716 46.5554 41.2374C46.9037 41.3896 47.1923 41.5818 47.4473 41.7515C47.5721 41.8338 47.6897 41.9119 47.8051 41.9808C48.8691 42.607 50.4703 42.7334 51.699 42.2893C52.0306 42.169 52.3674 42.0065 52.7242 41.8338C53.6769 41.3721 54.7566 40.8487 56.0336 41.0677C56.7535 41.1911 57.3043 41.5222 57.7902 41.8142C57.9664 41.9201 58.1322 42.0199 58.297 42.1042C59.7691 42.8609 62.1195 42.6193 63.2297 41.5983C63.599 41.258 64.1814 41.2754 64.5287 41.6384C64.876 42.0003 64.8582 42.571 64.4878 42.9113C63.6672 43.6671 62.4731 44.1637 61.1259 44.3087C60.8572 44.3375 60.5897 44.3518 60.3242 44.3518L60.3263 44.3498Z" fill="#0061B2"/>
</g>
<defs>
<clipPath id="clip0_402_5262">
<rect width="86" height="80" fill="white"/>
</clipPath>
</defs>
</svg>
