<svg width="1238" height="159" viewBox="0 0 1238 159" fill="none" xmlns="http://www.w3.org/2000/svg">
<path d="M82.54 77.6C92.5133 77.6 101.02 81.0467 108.06 87.94C115.1 94.8333 118.62 103.193 118.62 113.02H129.18C129.18 125.78 124.56 136.633 115.32 145.58C106.227 154.527 95.3 159 82.54 159H10.16V126.44H82.54C86.2067 126.44 89.36 125.12 92 122.48C94.64 119.84 95.96 116.687 95.96 113.02C95.96 109.353 94.64 106.273 92 103.78C89.36 101.14 86.2067 99.82 82.54 99.82H46.68C33.92 99.82 22.92 95.3467 13.68 86.4C4.58667 77.3067 0.0400003 66.4533 0.0400003 53.84H21.82C22.1133 60.1467 25.4867 65.72 31.94 70.56C38.54 75.2533 45.14 77.6 51.74 77.6H82.54ZM53.94 70.34C49.6867 70.34 45.6533 69.3133 41.84 67.26C38.1733 65.06 35.24 62.2 33.04 58.68C30.9867 55.0133 29.96 50.98 29.96 46.58H7.3C7.3 33.9667 11.8467 23.1867 20.94 14.24C30.18 5.29332 41.18 0.819991 53.94 0.819991H135.34L102.78 33.38H53.94C50.2733 33.38 47.12 34.7 44.48 37.34C41.84 39.8333 40.52 42.9133 40.52 46.58C40.52 49.0733 41.1067 51.3467 42.28 53.4C43.4533 55.4533 45.0667 57.0667 47.12 58.24C49.32 59.4133 51.5933 60 53.94 60H89.8C94.7867 60 99.9933 61.2467 105.42 63.74C110.993 66.0867 116.127 69.3133 120.82 73.42C131.233 82.9533 136.44 93.8067 136.44 105.98H126.54C126.1 96.74 121.92 88.5267 114 81.34C106.227 74.0067 98.16 70.34 89.8 70.34H53.94ZM166.302 102.68L165.422 100.04L151.782 103.34C147.235 85.74 148.922 68.8 156.842 52.52C161.095 43.5733 166.962 35.8733 174.442 29.42C182.068 22.82 190.282 18.0533 199.082 15.12C207.882 12.04 217.195 10.72 227.022 11.16C236.995 11.6 246.455 14.02 255.402 18.42C264.202 22.6733 271.755 28.32 278.062 35.36C284.368 42.4 289.135 50.32 292.362 59.12L283.342 61.1C280.995 54.7933 277.768 49 273.662 43.72C268.822 37.56 263.102 32.4267 256.502 28.32L254.082 26.78L240.662 48.12C235.088 45.48 229.295 44.16 223.282 44.16C218.295 44.16 213.382 45.04 208.542 46.8C203.848 48.56 199.595 51.2 195.782 54.72C191.968 58.24 188.888 62.3467 186.542 67.04C181.702 77.16 181.115 87.5 184.782 98.06C187.568 105.98 192.262 112.433 198.862 117.42L188.962 133.26C184.122 129.887 179.795 125.78 175.982 120.94C171.728 115.513 168.502 109.427 166.302 102.68ZM294.342 64.84C299.328 82.88 297.788 100.26 289.722 116.98C285.322 125.927 279.455 133.627 272.122 140.08C264.935 146.533 256.722 151.373 247.482 154.6C239.562 157.24 231.422 158.56 223.062 158.56C211.915 158.56 201.208 156.14 190.942 151.3C182.142 146.9 174.515 141.107 168.062 133.92C161.608 126.587 156.768 118.3 153.542 109.06L161.462 107.08C163.808 113.533 167.108 119.4 171.362 124.68C176.055 130.84 181.702 135.973 188.302 140.08L190.942 141.62L203.922 120.5C204.068 120.647 204.288 120.793 204.582 120.94C205.022 121.087 205.315 121.233 205.462 121.38C215.582 126.22 225.922 126.807 236.482 123.14C247.188 119.473 254.962 112.58 259.802 102.46C264.788 92.34 265.375 82 261.562 71.44C258.628 62.9333 253.422 56.1867 245.942 51.2L255.842 35.14C260.828 38.5133 265.155 42.5467 268.822 47.24C273.075 52.8133 276.302 58.9733 278.502 65.72L279.382 68.36L294.342 64.84ZM387.018 125.56H424.638V158.78H319.258V145.14H387.018V125.56ZM381.078 125.56V139.2H319.258V11.16L352.478 25.46V125.56H381.078ZM544.009 10.28H577.229V89.7C577.229 106.127 571.949 120.72 561.389 133.48L544.229 118.52L542.249 120.72C534.036 129.667 523.842 134.58 511.669 135.46V125.56C517.682 124.973 523.109 123.067 527.949 119.84C532.936 116.467 536.822 112.14 539.609 106.86C542.542 101.58 544.009 95.9333 544.009 89.92V10.28ZM508.589 141.62C522.522 141.62 534.549 136.707 544.669 126.88L557.429 138.1C550.976 144.7 543.496 149.833 534.989 153.5C526.482 157.167 517.536 159 508.149 159C489.082 159 472.802 152.253 459.309 138.76C445.816 125.267 439.069 108.987 439.069 89.92V10.28L439.509 10.5L472.289 24.8V89.7C472.289 99.2333 475.516 107.447 481.969 114.34C488.422 121.233 496.342 124.973 505.729 125.56V141.62H508.589ZM655.862 27.66V76.94H672.582V158.78H639.362V44.16H591.622V11.16H619.562V27.66H655.862ZM625.722 11.16H720.102L707.122 44.16H672.582V71H662.022V21.72H625.722V11.16ZM735.185 11.38H768.405V77.6H759.385V32.5H735.185V11.38ZM753.225 38.44V83.76H768.405V158.78L735.185 144.48V38.44H753.225ZM807.18 102.68L806.3 100.04L792.66 103.34C788.114 85.74 789.8 68.8 797.72 52.52C801.974 43.5733 807.84 35.8733 815.32 29.42C822.947 22.82 831.16 18.0533 839.96 15.12C848.76 12.04 858.074 10.72 867.9 11.16C877.874 11.6 887.334 14.02 896.28 18.42C905.08 22.6733 912.634 28.32 918.94 35.36C925.247 42.4 930.014 50.32 933.24 59.12L924.22 61.1C921.874 54.7933 918.647 49 914.54 43.72C909.7 37.56 903.98 32.4267 897.38 28.32L894.96 26.78L881.54 48.12C875.967 45.48 870.174 44.16 864.16 44.16C859.174 44.16 854.26 45.04 849.42 46.8C844.727 48.56 840.474 51.2 836.66 54.72C832.847 58.24 829.767 62.3467 827.42 67.04C822.58 77.16 821.994 87.5 825.66 98.06C828.447 105.98 833.14 112.433 839.74 117.42L829.84 133.26C825 129.887 820.674 125.78 816.86 120.94C812.607 115.513 809.38 109.427 807.18 102.68ZM935.22 64.84C940.207 82.88 938.667 100.26 930.6 116.98C926.2 125.927 920.334 133.627 913 140.08C905.814 146.533 897.6 151.373 888.36 154.6C880.44 157.24 872.3 158.56 863.94 158.56C852.794 158.56 842.087 156.14 831.82 151.3C823.02 146.9 815.394 141.107 808.94 133.92C802.487 126.587 797.647 118.3 794.42 109.06L802.34 107.08C804.687 113.533 807.987 119.4 812.24 124.68C816.934 130.84 822.58 135.973 829.18 140.08L831.82 141.62L844.8 120.5C844.947 120.647 845.167 120.793 845.46 120.94C845.9 121.087 846.194 121.233 846.34 121.38C856.46 126.22 866.8 126.807 877.36 123.14C888.067 119.473 895.84 112.58 900.68 102.46C905.667 92.34 906.254 82 902.44 71.44C899.507 62.9333 894.3 56.1867 886.82 51.2L896.72 35.14C901.707 38.5133 906.034 42.5467 909.7 47.24C913.954 52.8133 917.18 58.9733 919.38 65.72L920.26 68.36L935.22 64.84ZM960.137 158.78V39.1L1034.28 103.78V113.9L993.357 78.04V158.78H960.137ZM1085.54 10.28V158.78L1040.44 119.18V101.14L960.137 31.18V4.99999L1052.32 85.74V24.8L1085.54 10.28ZM1133.96 52.08V49H1108.44C1109.18 36.8267 1114.02 26.4867 1122.96 17.98C1132.06 9.47332 1142.76 5.21999 1155.08 5.21999H1236.48V5.44L1203.48 38.44H1155.08C1151.27 38.44 1148.04 39.76 1145.4 42.4C1142.76 45.04 1141.44 48.2667 1141.44 52.08C1141.44 55.7467 1142.76 58.9 1145.4 61.54C1148.04 64.18 1151.27 65.5 1155.08 65.5H1190.72C1203.04 65.5 1213.68 69.7533 1222.62 78.26C1231.72 86.7667 1236.63 97.1067 1237.36 109.28H1229.88C1229 99.16 1224.82 90.6533 1217.34 83.76C1209.86 76.72 1200.99 73.2 1190.72 73.2H1155.08C1149.22 73.2 1144.23 71.1467 1140.12 67.04C1136.02 62.7867 1133.96 57.8 1133.96 52.08ZM1223.94 112.36V115.22H1237.36C1236.63 127.54 1231.72 137.953 1222.62 146.46C1213.68 154.82 1203.04 159 1190.72 159H1118.34V125.78H1190.72C1194.54 125.78 1197.76 124.46 1200.4 121.82C1203.04 119.18 1204.36 116.027 1204.36 112.36C1204.36 108.547 1203.04 105.32 1200.4 102.68C1197.76 100.04 1194.54 98.72 1190.72 98.72H1155.08C1142.76 98.72 1132.06 94.54 1122.96 86.18C1114.02 77.6733 1109.18 67.26 1108.44 54.94H1128.02C1128.76 61.8333 1131.69 67.6267 1136.82 72.32C1142.1 76.8667 1148.19 79.14 1155.08 79.14H1190.72C1199.82 79.14 1207.59 82.3667 1214.04 88.82C1220.64 95.2733 1223.94 103.12 1223.94 112.36Z" fill="#D9D9D9" fill-opacity="0.4"/>
</svg>
