<svg width="186" height="49" viewBox="0 0 186 49" fill="none" xmlns="http://www.w3.org/2000/svg">
<path d="M9.49615 21.5334C8.2765 21.5334 7.28692 22.523 7.28692 23.7427C7.28692 24.9623 8.2765 25.9519 9.49615 25.9519C10.7158 25.9519 11.7054 24.9623 11.7054 23.7427C11.7054 22.523 10.7173 21.5334 9.49615 21.5334Z" fill="#FBB040"/>
<path d="M38.3651 21.5334C37.1454 21.5334 36.1558 22.523 36.1558 23.7427C36.1558 24.9623 37.1454 25.9519 38.3651 25.9519C39.5847 25.9519 40.5743 24.9623 40.5743 23.7427C40.5743 22.523 39.5847 21.5334 38.3651 21.5334Z" fill="#ED1C24"/>
<path d="M24.2646 0C16.3214 0 9.26903 3.81822 4.84319 9.71884C5.15437 9.74243 5.4685 9.75571 5.78411 9.75571H11.6021C14.0695 9.75571 16.435 8.99029 18.6147 7.83406C19.2799 7.48159 20.0335 7.27364 20.8328 7.25594C23.5567 7.194 25.9061 9.446 25.9518 12.1699C26.0005 14.9735 23.7411 17.2609 20.9493 17.2609C20.094 17.2609 19.2902 17.047 18.5867 16.668C15.8908 15.2183 12.9604 14.2582 9.89876 14.2582H7.48454C5.48915 14.2582 3.54981 14.6712 1.69453 15.3569C0.604662 18.1163 0 21.1189 0 24.2646C0 27.4708 0.626784 30.5281 1.75647 33.3302C2.82274 33.6089 3.91703 33.7711 5.03344 33.7711H10.8515C13.3188 33.7711 15.6843 33.0057 17.8641 31.8495C18.5292 31.497 19.2828 31.289 20.0822 31.2713C22.8061 31.2094 25.1554 33.4614 25.2011 36.1853C25.2498 38.9889 22.9904 41.2763 20.1987 41.2763C19.3433 41.2763 18.5395 41.0624 17.8361 40.6834C15.1401 39.2337 12.2097 38.2736 9.14809 38.2736H6.73387C6.00533 38.2736 5.28416 38.3311 4.57183 38.4344C8.97849 44.5474 16.1548 48.5308 24.2646 48.5308C37.666 48.5308 48.5293 37.6675 48.5293 24.2661C48.5308 10.8633 37.666 0 24.2646 0ZM38.5111 29.7818C37.5053 29.7818 36.5585 29.5296 35.7296 29.0842C32.5544 27.3779 29.1034 26.2468 25.499 26.2468H22.6542C19.0498 26.2468 15.5988 27.3779 12.4251 29.0842C11.5962 29.5296 10.6494 29.7818 9.64362 29.7818C6.35485 29.7818 3.69581 27.0874 3.75333 23.7868C3.8079 20.5792 6.57459 17.926 9.78078 18.0012C10.7232 18.0234 11.611 18.2667 12.3941 18.6826C14.9602 20.0453 17.7461 20.9464 20.6514 20.9464H27.5033C30.4086 20.9464 33.1945 20.0453 35.7606 18.6826C36.5437 18.2667 37.4301 18.0234 38.3739 18.0012C41.5816 17.9275 44.3468 20.5792 44.4014 23.7883C44.4589 27.0874 41.7998 29.7818 38.5111 29.7818Z" fill="white"/>
<path d="M20.0748 38.0243C21.1108 38.0243 21.9507 37.1844 21.9507 36.1484C21.9507 35.1123 21.1108 34.2725 20.0748 34.2725C19.0387 34.2725 18.1989 35.1123 18.1989 36.1484C18.1989 37.1844 19.0387 38.0243 20.0748 38.0243Z" fill="#FBB040"/>
<path d="M20.8254 14.0089C21.8615 14.0089 22.7014 13.1691 22.7014 12.133C22.7014 11.097 21.8615 10.2571 20.8254 10.2571C19.7894 10.2571 18.9495 11.097 18.9495 12.133C18.9495 13.1691 19.7894 14.0089 20.8254 14.0089Z" fill="#ED1C24"/>
<path d="M62.9259 10.6395V21.5517C62.9259 21.8701 62.8228 22.144 62.6147 22.3734C62.4066 22.6029 62.033 22.7167 61.4923 22.7167C60.5087 22.7167 60.016 22.329 60.016 21.5535V10.6395H56.5031C56.1011 10.6395 55.8166 10.515 55.6511 10.2659C55.4839 10.0169 55.4021 9.72522 55.4021 9.39261C55.4021 9.05999 55.4893 8.76829 55.6618 8.51927C55.8343 8.27026 56.1011 8.14575 56.4622 8.14575H66.6469C66.9938 8.14575 67.257 8.27026 67.4367 8.51927C67.6163 8.76829 67.707 9.05999 67.707 9.39261C67.707 9.72522 67.6234 10.0169 67.458 10.2659C67.2908 10.515 67.008 10.6395 66.606 10.6395H62.9259Z" fill="white"/>
<path d="M71.8638 11.5325C73.3739 11.5325 74.5763 12.0003 75.471 12.9359C76.3657 13.8714 76.8121 15.2126 76.8121 16.9574C76.8121 17.3594 76.6912 17.6369 76.4475 17.7881C76.2056 17.9411 75.8623 18.0175 75.4194 18.0175H69.3915C69.5302 19.7215 70.4515 20.5753 72.1555 20.5753C72.5984 20.5753 72.9737 20.5024 73.2779 20.3565C73.582 20.2107 73.8453 20.0826 74.0676 19.9723C74.2757 19.862 74.4696 19.75 74.6492 19.6397C74.8289 19.5294 75.0441 19.4743 75.2931 19.4743C75.5706 19.4743 75.8267 19.613 76.0615 19.8905C76.2963 20.168 76.4155 20.4792 76.4155 20.8261C76.4155 21.0751 76.3425 21.2939 76.1967 21.4806C76.0508 21.6674 75.8125 21.8648 75.4799 22.0729C75.037 22.3504 74.5069 22.5621 73.8897 22.7061C73.2725 22.852 72.666 22.9249 72.0701 22.9249C71.211 22.9249 70.432 22.8146 69.7312 22.5923C69.0322 22.37 68.4381 22.0302 67.9543 21.5731C67.4687 21.116 67.0952 20.5379 66.8319 19.8371C66.5687 19.1381 66.4371 18.3092 66.4371 17.3523C66.4371 16.6177 66.5402 15.9009 66.7483 15.2019C66.9564 14.5029 67.2819 13.8821 67.7248 13.3414C68.1677 12.8007 68.7333 12.3649 69.4181 12.0323C70.1065 11.6997 70.9211 11.5325 71.8638 11.5325ZM73.9218 15.8778C73.9218 15.627 73.8808 15.3744 73.7972 15.1218C73.7136 14.8693 73.5856 14.638 73.413 14.4282C73.2387 14.2183 73.0217 14.0511 72.7585 13.9248C72.4952 13.7985 72.1769 13.7363 71.8016 13.7363C71.2057 13.7363 70.6899 13.9195 70.2523 14.2823C69.8166 14.6452 69.5622 15.177 69.4928 15.8778H73.9218Z" fill="white"/>
<path d="M84.231 11.5325C84.9922 11.5325 85.6557 11.6356 86.216 11.8437C86.778 12.0518 87.2441 12.3009 87.6194 12.5926C87.9929 12.8843 88.2739 13.1955 88.4607 13.5282C88.6474 13.8608 88.7417 14.1525 88.7417 14.4015C88.7417 14.7626 88.6136 15.0596 88.3575 15.2962C88.1014 15.5327 87.7919 15.6501 87.4326 15.6501C87.1694 15.6501 86.9577 15.5772 86.7994 15.4313C86.6393 15.2855 86.4561 15.1165 86.248 14.9226C85.9296 14.6309 85.6237 14.3997 85.3337 14.2254C85.042 14.0529 84.6543 13.9657 84.1705 13.9657C83.6013 13.9657 83.1513 14.0902 82.8187 14.3392C82.4861 14.5882 82.2371 14.8906 82.0699 15.2428C81.9027 15.5968 81.796 15.9667 81.7479 16.3545C81.6999 16.7422 81.675 17.0677 81.675 17.331C81.675 17.6209 81.707 17.9553 81.7693 18.3288C81.8315 18.7023 81.956 19.0527 82.1428 19.3782C82.3296 19.7037 82.5928 19.9776 82.9325 20.2C83.2723 20.4223 83.7116 20.5326 84.2523 20.5326C84.7646 20.5326 85.1666 20.449 85.4583 20.2836C85.75 20.1182 86.0683 19.8549 86.4152 19.4938C86.5682 19.3284 86.7158 19.1861 86.8616 19.067C87.0075 18.9496 87.1978 18.8909 87.4326 18.8909C87.598 18.8909 87.7617 18.9264 87.9217 18.994C88.08 19.0634 88.2188 19.1577 88.3379 19.2751C88.4553 19.3925 88.5532 19.5276 88.6296 19.6806C88.7061 19.8336 88.7435 19.9919 88.7435 20.1591C88.7435 20.4366 88.6368 20.7371 88.4215 21.0626C88.2063 21.3881 87.8986 21.6905 87.4966 21.9662C87.0946 22.2437 86.6055 22.4749 86.031 22.6617C85.4565 22.8484 84.8001 22.9427 84.0673 22.9427C83.0979 22.9427 82.2726 22.7862 81.5932 22.4749C80.9137 22.1636 80.3623 21.751 79.9408 21.2387C79.5175 20.7265 79.2133 20.1377 79.0265 19.4725C78.8398 18.8073 78.7455 18.1207 78.7455 17.4146C78.7455 16.4861 78.8771 15.6555 79.1404 14.9209C79.4036 14.1863 79.7771 13.5691 80.2627 13.071C80.7483 12.573 81.3264 12.1906 81.9987 11.9273C82.6693 11.6641 83.4128 11.5325 84.231 11.5325Z" fill="white"/>
<path d="M97.1193 11.5325C97.8539 11.5325 98.4533 11.6463 98.9175 11.8757C99.3818 12.1052 99.7873 12.4343 100.134 12.8629C100.495 13.3343 100.709 13.8572 100.778 14.4317C100.847 15.0062 100.881 15.5505 100.881 16.0628V21.5713C100.881 21.9733 100.764 22.265 100.527 22.4447C100.291 22.6243 99.9314 22.715 99.4458 22.715C99.0296 22.715 98.6863 22.6279 98.416 22.4553C98.1456 22.2828 98.0104 21.9875 98.0104 21.5696V16.1108C98.0104 15.5007 97.9482 15.056 97.8237 14.7768C97.6992 14.4993 97.5088 14.3036 97.2527 14.1934C96.9966 14.0831 96.6871 14.0262 96.3278 14.0262C95.9667 14.0262 95.6519 14.0813 95.3815 14.1934C95.1112 14.3036 94.8853 14.4442 94.7056 14.6096C94.526 14.7768 94.3873 14.9564 94.2894 15.1521C94.1916 15.346 94.124 15.5274 94.0813 15.6946C94.0119 15.9454 93.9746 16.23 93.9675 16.5483C93.9604 16.8685 93.9568 17.1389 93.9568 17.3612V21.5073C93.9568 21.9377 93.843 22.2472 93.6135 22.434C93.3841 22.6208 93.007 22.715 92.4805 22.715C92.0501 22.715 91.7121 22.6243 91.4613 22.4447C91.2105 22.265 91.0878 21.9662 91.0878 21.55V9.16326C91.0878 8.78973 91.2016 8.50159 91.4311 8.3006C91.6605 8.09961 92.0376 8 92.5641 8C92.7437 8 92.9181 8.01779 93.0835 8.05158C93.2489 8.08715 93.3983 8.14585 93.5299 8.22767C93.6615 8.31127 93.7647 8.42866 93.8412 8.58163C93.9177 8.73459 93.955 8.93559 93.955 9.1846V13.071C94.2325 12.6975 94.6345 12.3471 95.161 12.0216C95.691 11.6961 96.342 11.5325 97.1193 11.5325Z" fill="white"/>
<path d="M112.562 19.4317C112.562 20.5949 112.138 21.4683 111.294 22.0499C110.449 22.6315 109.298 22.9232 107.843 22.9232C107.012 22.9232 106.267 22.8272 105.609 22.6315C104.951 22.4376 104.421 22.1957 104.019 21.904C103.839 21.7795 103.704 21.6372 103.613 21.4789C103.523 21.3188 103.478 21.1641 103.478 21.0111C103.478 20.7337 103.547 20.4704 103.686 20.2214C103.796 20.0133 103.939 19.8408 104.113 19.702C104.286 19.5633 104.49 19.4939 104.727 19.4939C104.935 19.4939 105.136 19.5562 105.33 19.6807C105.524 19.8052 105.742 19.9439 105.984 20.0969C106.226 20.2499 106.507 20.3868 106.826 20.5131C107.144 20.6376 107.546 20.6999 108.032 20.6999C108.627 20.6999 109.056 20.6038 109.321 20.4082C109.584 20.2143 109.716 19.951 109.716 19.6184C109.716 19.3694 109.622 19.14 109.435 18.9319C109.248 18.7237 108.864 18.5708 108.281 18.4747L107.034 18.2666C106.521 18.183 106.054 18.0621 105.63 17.9038C105.207 17.7455 104.844 17.5374 104.538 17.2795C104.234 17.0233 103.997 16.7121 103.832 16.3439C103.667 15.9775 103.583 15.5292 103.583 15.0027C103.583 14.4478 103.693 13.9569 103.916 13.5264C104.138 13.0978 104.449 12.7331 104.851 12.4361C105.253 12.1373 105.735 11.9132 106.296 11.7602C106.858 11.6072 107.469 11.5308 108.135 11.5308C109.104 11.5308 109.894 11.6446 110.504 11.874C111.114 12.1035 111.564 12.3347 111.856 12.5713C112.035 12.7243 112.16 12.8754 112.229 13.0284C112.299 13.1814 112.332 13.3326 112.332 13.4855C112.332 13.8181 112.242 14.1027 112.062 14.3375C111.952 14.4763 111.836 14.583 111.719 14.6595C111.601 14.7359 111.452 14.7733 111.272 14.7733C111.119 14.7733 110.963 14.7413 110.804 14.679C110.644 14.6168 110.509 14.551 110.399 14.4816C110.025 14.261 109.664 14.0796 109.318 13.9409C108.971 13.8021 108.521 13.7328 107.966 13.7328C107.425 13.7328 107.027 13.827 106.77 14.0138C106.514 14.2006 106.386 14.4336 106.386 14.711C106.386 14.9601 106.481 15.1788 106.667 15.3656C106.854 15.5524 107.26 15.7018 107.884 15.812L108.985 16.0202C110.246 16.2567 111.157 16.6302 111.719 17.1425C112.283 17.6583 112.562 18.4214 112.562 19.4317Z" fill="white"/>
<path d="M124.161 21.5731C124.161 21.9751 124.059 22.2668 123.86 22.4464C123.659 22.6261 123.316 22.7168 122.83 22.7168C122.414 22.7168 122.085 22.6296 121.843 22.4571C121.601 22.2846 121.48 21.9893 121.48 21.5731V21.1996C121.327 21.3934 121.158 21.5873 120.971 21.7812C120.785 21.9751 120.555 22.1494 120.285 22.3006C120.014 22.4535 119.7 22.578 119.339 22.6741C118.978 22.7701 118.563 22.8199 118.092 22.8199C116.996 22.8199 116.133 22.5318 115.504 21.9573C114.872 21.3828 114.557 20.6162 114.557 19.661C114.557 19.1061 114.652 18.6365 114.839 18.247C115.025 17.8592 115.281 17.5337 115.607 17.2705C115.932 17.0072 116.313 16.7991 116.751 16.6461C117.186 16.4932 117.647 16.3758 118.133 16.2922C118.659 16.1961 119.189 16.1197 119.723 16.0627C120.256 16.0076 120.834 15.9596 121.459 15.9169V15.522C121.459 15.3139 121.43 15.1094 121.375 14.9084C121.32 14.7074 121.226 14.5242 121.094 14.357C120.963 14.1916 120.779 14.0599 120.543 13.9621C120.306 13.8661 120.016 13.8163 119.669 13.8163C119.447 13.8163 119.243 13.8305 119.056 13.8572C118.869 13.8856 118.688 13.9301 118.515 13.9924C118.343 14.0546 118.161 14.1418 117.974 14.252C117.788 14.3623 117.576 14.4939 117.341 14.6469C117.161 14.7714 116.991 14.8764 116.832 14.9582C116.672 15.0418 116.475 15.0827 116.24 15.0827C115.922 15.0827 115.637 14.9617 115.388 14.7198C115.139 14.4779 115.015 14.1827 115.015 13.8358C115.015 13.601 115.111 13.3467 115.306 13.0763C115.5 12.806 115.795 12.557 116.19 12.3275C116.585 12.0981 117.071 11.9077 117.645 11.7565C118.22 11.6036 118.896 11.5271 119.671 11.5271C121.265 11.5271 122.412 11.8384 123.111 12.4627C123.81 13.087 124.161 14.0564 124.161 15.3726V21.5731ZM121.459 17.6653C120.932 17.7205 120.431 17.7827 119.952 17.8521C119.474 17.9215 119.118 17.9837 118.881 18.0389C118.216 18.1776 117.784 18.375 117.583 18.6312C117.382 18.8873 117.282 19.147 117.282 19.4102C117.282 19.7713 117.393 20.0523 117.615 20.2515C117.837 20.4525 118.218 20.5521 118.759 20.5521C119.618 20.5521 120.283 20.3547 120.754 19.9598C121.226 19.565 121.461 19.0563 121.461 18.4319V17.6653H121.459Z" fill="white"/>
<path d="M133.1 21.8434C132.947 22.1618 132.753 22.3912 132.519 22.53C132.282 22.6687 131.949 22.7381 131.521 22.7381C131.243 22.7381 131.017 22.7096 130.845 22.6545C130.671 22.5993 130.526 22.5264 130.409 22.4357C130.292 22.345 130.197 22.2454 130.128 22.1351C130.059 22.0248 129.996 21.9128 129.941 21.8025L126.387 13.7379C126.29 13.5298 126.235 13.3644 126.22 13.2399C126.206 13.1154 126.199 13.0051 126.199 12.9073C126.199 12.5462 126.341 12.2634 126.626 12.0553C126.91 11.8472 127.295 11.744 127.78 11.744C128.196 11.744 128.504 11.8241 128.705 11.9824C128.906 12.1425 129.061 12.3595 129.173 12.6369L131.19 17.7293C131.412 18.3252 131.551 18.8445 131.606 19.2874C131.676 18.8018 131.828 18.2754 132.063 17.708L134.08 12.6565C134.205 12.3381 134.365 12.1051 134.559 11.9593C134.753 11.8134 135.03 11.7405 135.389 11.7405C135.875 11.7405 136.241 11.8543 136.49 12.0838C136.739 12.3132 136.864 12.5925 136.864 12.9251C136.864 13.0354 136.853 13.1634 136.832 13.3093C136.811 13.4551 136.766 13.6045 136.697 13.7557L133.1 21.8434Z" fill="white"/>
<path d="M147.671 21.5731C147.671 21.9751 147.57 22.2668 147.371 22.4464C147.17 22.6261 146.826 22.7168 146.341 22.7168C145.925 22.7168 145.595 22.6296 145.354 22.4571C145.112 22.2846 144.991 21.9893 144.991 21.5731V21.1996C144.838 21.3934 144.669 21.5873 144.482 21.7812C144.295 21.9751 144.066 22.1494 143.795 22.3006C143.525 22.4535 143.21 22.578 142.849 22.6741C142.488 22.7701 142.074 22.8199 141.602 22.8199C140.507 22.8199 139.644 22.5318 139.014 21.9573C138.383 21.3828 138.068 20.6162 138.068 19.661C138.068 19.1061 138.162 18.6365 138.349 18.247C138.536 17.8592 138.792 17.5337 139.118 17.2705C139.443 17.0072 139.824 16.7991 140.261 16.6461C140.697 16.4932 141.158 16.3758 141.643 16.2922C142.17 16.1961 142.7 16.1197 143.233 16.0627C143.767 16.0076 144.345 15.9596 144.969 15.9169V15.522C144.969 15.3139 144.941 15.1094 144.886 14.9084C144.831 14.7074 144.736 14.5242 144.605 14.357C144.473 14.1916 144.29 14.0599 144.053 13.9621C143.817 13.8661 143.527 13.8163 143.18 13.8163C142.958 13.8163 142.753 13.8305 142.566 13.8572C142.38 13.8856 142.198 13.9301 142.026 13.9924C141.853 14.0546 141.672 14.1418 141.485 14.252C141.298 14.3623 141.087 14.4939 140.852 14.6469C140.672 14.7714 140.501 14.8764 140.343 14.9582C140.183 15.0418 139.986 15.0827 139.751 15.0827C139.432 15.0827 139.148 14.9617 138.899 14.7198C138.65 14.4779 138.525 14.1827 138.525 13.8358C138.525 13.601 138.621 13.3467 138.817 13.0763C139.011 12.806 139.306 12.557 139.701 12.3275C140.096 12.0981 140.581 11.9077 141.156 11.7565C141.73 11.6036 142.406 11.5271 143.182 11.5271C144.776 11.5271 145.923 11.8384 146.622 12.4627C147.321 13.087 147.671 14.0564 147.671 15.3726V21.5731ZM144.968 17.6653C144.441 17.7205 143.94 17.7827 143.461 17.8521C142.983 17.9215 142.627 17.9837 142.39 18.0389C141.725 18.1776 141.293 18.375 141.092 18.6312C140.891 18.8873 140.791 19.147 140.791 19.4102C140.791 19.7713 140.902 20.0523 141.124 20.2515C141.346 20.4525 141.727 20.5521 142.268 20.5521C143.127 20.5521 143.792 20.3547 144.263 19.9598C144.735 19.565 144.969 19.0563 144.969 18.4319V17.6653H144.968Z" fill="white"/>
<path d="M156.899 11.5325C157.619 11.5325 158.219 11.6463 158.697 11.8758C159.176 12.1052 159.587 12.4343 159.933 12.8629C160.294 13.3343 160.508 13.8572 160.577 14.4317C160.647 15.0062 160.68 15.5505 160.68 16.0628V21.5714C160.68 21.9733 160.563 22.265 160.327 22.4447C160.09 22.6243 159.731 22.715 159.245 22.715C158.829 22.715 158.486 22.6279 158.215 22.4554C157.945 22.2828 157.81 21.9876 157.81 21.5696V16.1108C157.81 15.5007 157.747 15.056 157.623 14.7768C157.498 14.4993 157.308 14.3037 157.052 14.1934C156.796 14.0831 156.486 14.0262 156.127 14.0262C155.754 14.0262 155.433 14.0849 155.17 14.204C154.907 14.3232 154.685 14.4673 154.505 14.6416C154.325 14.8141 154.187 14.9991 154.089 15.193C153.991 15.3869 153.923 15.5683 153.881 15.7355C153.811 15.9863 153.774 16.2709 153.767 16.5893C153.76 16.9094 153.756 17.1798 153.756 17.4021V21.5073C153.756 21.9378 153.642 22.2472 153.413 22.434C153.183 22.6208 152.806 22.715 152.28 22.715C151.849 22.715 151.511 22.6243 151.261 22.4447C151.01 22.265 150.887 21.9662 150.887 21.55V12.9661C150.887 12.5926 150.994 12.2866 151.209 12.0518C151.424 11.8171 151.794 11.6979 152.321 11.6979C152.682 11.6979 153 11.7779 153.278 11.9362C153.555 12.0963 153.694 12.4183 153.694 12.9021V13.1511C153.986 12.7224 154.404 12.3435 154.951 12.0181C155.503 11.6961 156.152 11.5325 156.899 11.5325Z" fill="white"/>
<path d="M169.912 11.5325C170.632 11.5325 171.232 11.6463 171.71 11.8758C172.189 12.1052 172.599 12.4343 172.946 12.8629C173.307 13.3343 173.521 13.8572 173.59 14.4317C173.66 15.0062 173.693 15.5505 173.693 16.0628V21.5714C173.693 21.9733 173.576 22.265 173.339 22.4447C173.103 22.6243 172.743 22.715 172.258 22.715C171.842 22.715 171.498 22.6279 171.228 22.4554C170.958 22.2828 170.822 21.9876 170.822 21.5696V16.1108C170.822 15.5007 170.76 15.056 170.636 14.7768C170.511 14.4993 170.321 14.3037 170.065 14.1934C169.809 14.0831 169.499 14.0262 169.14 14.0262C168.766 14.0262 168.446 14.0849 168.183 14.204C167.92 14.3232 167.697 14.4673 167.518 14.6416C167.338 14.8141 167.199 14.9991 167.101 15.193C167.004 15.3869 166.936 15.5683 166.893 15.7355C166.824 15.9863 166.787 16.2709 166.78 16.5893C166.772 16.9094 166.769 17.1798 166.769 17.4021V21.5073C166.769 21.9378 166.655 22.2472 166.426 22.434C166.196 22.6208 165.819 22.715 165.293 22.715C164.862 22.715 164.524 22.6243 164.273 22.4447C164.023 22.265 163.9 21.9662 163.9 21.55V12.9661C163.9 12.5926 164.007 12.2866 164.222 12.0518C164.437 11.8171 164.807 11.6979 165.333 11.6979C165.695 11.6979 166.013 11.7779 166.29 11.9362C166.568 12.0963 166.707 12.4183 166.707 12.9021V13.1511C166.998 12.7224 167.416 12.3435 167.964 12.0181C168.516 11.6961 169.163 11.5325 169.912 11.5325Z" fill="white"/>
<path d="M186 21.5731C186 21.9751 185.899 22.2668 185.699 22.4464C185.498 22.6261 185.155 22.7168 184.67 22.7168C184.253 22.7168 183.924 22.6296 183.682 22.4571C183.44 22.2846 183.32 21.9893 183.32 21.5731V21.1996C183.167 21.3934 182.998 21.5873 182.811 21.7812C182.624 21.9751 182.395 22.1494 182.124 22.3006C181.854 22.4535 181.539 22.578 181.178 22.6741C180.817 22.7701 180.402 22.8199 179.931 22.8199C178.835 22.8199 177.973 22.5318 177.343 21.9573C176.712 21.3828 176.397 20.6162 176.397 19.661C176.397 19.1061 176.491 18.6365 176.678 18.247C176.865 17.8592 177.121 17.5337 177.446 17.2705C177.772 17.0072 178.152 16.7991 178.59 16.6461C179.026 16.4932 179.486 16.3758 179.972 16.2922C180.499 16.1961 181.029 16.1197 181.562 16.0627C182.096 16.0076 182.674 15.9596 183.298 15.9169V15.522C183.298 15.3139 183.27 15.1094 183.215 14.9084C183.159 14.7074 183.065 14.5242 182.934 14.357C182.802 14.1916 182.619 14.0599 182.382 13.9621C182.146 13.8661 181.856 13.8163 181.509 13.8163C181.286 13.8163 181.082 13.8305 180.895 13.8572C180.708 13.8856 180.527 13.9301 180.354 13.9924C180.182 14.0546 180.001 14.1418 179.814 14.252C179.627 14.3623 179.415 14.4939 179.181 14.6469C179.001 14.7714 178.83 14.8764 178.672 14.9582C178.512 15.0418 178.314 15.0827 178.08 15.0827C177.761 15.0827 177.477 14.9617 177.228 14.7198C176.979 14.4779 176.854 14.1827 176.854 13.8358C176.854 13.601 176.95 13.3467 177.146 13.0763C177.34 12.806 177.635 12.557 178.03 12.3275C178.425 12.0981 178.91 11.9077 179.485 11.7565C180.059 11.6036 180.735 11.5271 181.511 11.5271C183.104 11.5271 184.252 11.8384 184.951 12.4627C185.65 13.087 186 14.0564 186 15.3726V21.5731ZM183.298 17.6653C182.772 17.7205 182.27 17.7827 181.792 17.8521C181.313 17.9215 180.957 17.9837 180.721 18.0389C180.056 18.1776 179.623 18.375 179.422 18.6312C179.221 18.8873 179.122 19.147 179.122 19.4102C179.122 19.7713 179.232 20.0523 179.454 20.2515C179.677 20.4525 180.057 20.5521 180.598 20.5521C181.457 20.5521 182.122 20.3547 182.594 19.9598C183.065 19.565 183.3 19.0563 183.3 18.4319V17.6653H183.298Z" fill="white"/>
<path d="M60 29.9259C60 29.7854 60.032 29.6893 60.0996 29.636C60.1654 29.5826 60.2561 29.5559 60.3717 29.5559C60.4873 29.5559 60.5781 29.5826 60.6439 29.636C60.7097 29.6893 60.7435 29.7854 60.7435 29.9259V37.9228C60.7435 38.0633 60.7097 38.1594 60.6439 38.2128C60.5781 38.2661 60.4873 38.2928 60.3717 38.2928C60.2561 38.2928 60.1654 38.2661 60.0996 38.2128C60.0338 38.1594 60 38.0633 60 37.9228V29.9259Z" fill="white"/>
<path d="M64.468 37.9355C64.468 38.076 64.4378 38.1702 64.3755 38.22C64.3133 38.2698 64.2261 38.2947 64.1105 38.2947C63.9949 38.2947 63.906 38.2698 63.8455 38.22C63.785 38.1702 63.753 38.076 63.753 37.9355V32.2704C63.753 32.1387 63.7832 32.0498 63.8455 32.0053C63.9077 31.9609 63.9878 31.9377 64.0856 31.9377C64.1923 31.9377 64.2795 31.9609 64.3453 32.0053C64.4111 32.0498 64.4431 32.1387 64.4431 32.2704V33.3927C64.4929 33.286 64.5712 33.1419 64.6779 32.9605C64.7846 32.7791 64.9358 32.6047 65.1279 32.4358C65.3218 32.2668 65.5548 32.1209 65.8323 31.9982C66.108 31.8755 66.4353 31.8132 66.8141 31.8132C67.4473 31.8132 67.9596 31.9875 68.3509 32.3379C68.7422 32.6883 68.9379 33.2326 68.9379 33.9726V37.9959C68.9379 38.1934 68.8276 38.293 68.6052 38.293C68.3509 38.293 68.2228 38.1951 68.2228 37.9959V34.2447C68.2228 33.6862 68.109 33.2575 67.8831 32.9605C67.6572 32.6652 67.2517 32.5158 66.6683 32.5158C66.2823 32.5158 65.9479 32.5976 65.6686 32.7631C65.3894 32.9285 65.1599 33.1401 64.9839 33.398C64.806 33.6577 64.6779 33.9494 64.5943 34.2749C64.5125 34.6004 64.4716 34.9188 64.4716 35.2319V37.9355H64.468Z" fill="white"/>
<path d="M72.577 37.9355C72.577 38.076 72.5468 38.1702 72.4845 38.22C72.4223 38.2698 72.3351 38.2947 72.2195 38.2947C72.1039 38.2947 72.015 38.2698 71.9545 38.22C71.894 38.1702 71.862 38.076 71.862 37.9355V32.2704C71.862 32.1387 71.8922 32.0498 71.9545 32.0053C72.0167 31.9609 72.0968 31.9377 72.1946 31.9377C72.3013 31.9377 72.3885 31.9609 72.4543 32.0053C72.5201 32.0498 72.5521 32.1387 72.5521 32.2704V33.3927C72.6019 33.286 72.6802 33.1419 72.7869 32.9605C72.8936 32.7791 73.0448 32.6047 73.2369 32.4358C73.4308 32.2668 73.6638 32.1209 73.9413 31.9982C74.217 31.8755 74.5442 31.8132 74.9231 31.8132C75.5563 31.8132 76.0686 31.9875 76.4599 32.3379C76.8512 32.6883 77.0469 33.2326 77.0469 33.9726V37.9959C77.0469 38.1934 76.9366 38.293 76.7142 38.293C76.4599 38.293 76.3318 38.1951 76.3318 37.9959V34.2447C76.3318 33.6862 76.218 33.2575 75.9921 32.9605C75.7662 32.6652 75.3607 32.5158 74.7773 32.5158C74.3913 32.5158 74.0569 32.5976 73.7776 32.7631C73.4984 32.9285 73.2689 33.1401 73.0928 33.398C72.915 33.6577 72.7869 33.9494 72.7033 34.2749C72.6215 34.6004 72.5806 34.9188 72.5806 35.2319V37.9355H72.577Z" fill="white"/>
<path d="M79.5744 35.1091C79.5744 34.5915 79.6455 34.1273 79.7896 33.72C79.9337 33.3127 80.1347 32.9676 80.3943 32.683C80.654 32.3984 80.9653 32.1832 81.3317 32.0356C81.6981 31.8879 82.1037 31.8132 82.5466 31.8132C82.9894 31.8132 83.3985 31.8879 83.7685 32.0356C84.1385 32.1832 84.4533 32.4002 84.713 32.683C84.9727 32.9658 85.1737 33.3127 85.3177 33.72C85.4618 34.1273 85.533 34.5898 85.533 35.1091C85.533 35.6285 85.46 36.0927 85.3177 36.5036C85.1737 36.9145 84.9727 37.2631 84.713 37.5459C84.4533 37.8305 84.1385 38.0457 83.7685 38.1934C83.3985 38.341 82.9912 38.4157 82.5466 38.4157C82.1019 38.4157 81.6963 38.341 81.3317 38.1934C80.9653 38.0457 80.6522 37.8287 80.3943 37.5459C80.1347 37.2613 79.9337 36.9145 79.7896 36.5036C79.6455 36.0927 79.5744 35.6267 79.5744 35.1091ZM80.3517 35.1091C80.3517 35.9576 80.5402 36.6103 80.9191 37.071C81.2979 37.5317 81.8404 37.7611 82.5483 37.7611C83.2634 37.7611 83.8112 37.5317 84.1901 37.071C84.5689 36.6103 84.7575 35.9558 84.7575 35.1091C84.7575 34.2696 84.5689 33.6186 84.1901 33.1526C83.8112 32.6883 83.2651 32.4553 82.5483 32.4553C81.8404 32.4553 81.2979 32.6883 80.9191 33.1526C80.542 33.6186 80.3517 34.2696 80.3517 35.1091Z" fill="white"/>
<path d="M87.3988 32.6901C87.3739 32.6242 87.3454 32.5531 87.3116 32.4748C87.2778 32.3966 87.2618 32.3201 87.2618 32.2472C87.2618 32.1404 87.3099 32.0604 87.4041 32.007C87.4984 31.9537 87.6033 31.927 87.719 31.927C87.8417 31.927 87.9377 32.0142 88.0035 32.1867L90.0775 37.432L92.2742 32.1867C92.3151 32.096 92.3631 32.0302 92.4165 31.9893C92.4698 31.9483 92.525 31.927 92.5837 31.927C92.6833 31.927 92.7775 31.9537 92.8682 32.007C92.959 32.0604 93.0034 32.1333 93.0034 32.2223C93.0034 32.297 92.9625 32.4197 92.8807 32.5922L90.5239 38.035C90.483 38.1168 90.4279 38.1808 90.3567 38.2271C90.2874 38.2716 90.186 38.2947 90.0544 38.2947C89.9138 38.2947 89.8107 38.2733 89.7467 38.2324C89.6808 38.1915 89.6364 38.1382 89.6115 38.0723L87.3988 32.6901Z" fill="white"/>
<path d="M99.2359 34.467V34.0597C99.2359 33.5172 99.0972 33.1117 98.8233 32.8449C98.5476 32.5781 98.1011 32.4429 97.4839 32.4429C97.2367 32.4429 97.0232 32.4678 96.8418 32.5176C96.6604 32.5674 96.5021 32.6279 96.3669 32.7026C96.2317 32.7773 96.1161 32.8573 96.0218 32.9427C95.9276 33.0299 95.8422 33.1099 95.7693 33.1828C95.6874 33.2646 95.6216 33.3216 95.5718 33.35C95.522 33.3785 95.474 33.3927 95.4242 33.3927C95.3335 33.3927 95.2534 33.366 95.1841 33.3127C95.1147 33.2593 95.0791 33.1864 95.0791 33.0974C95.0791 33.0227 95.0969 32.9534 95.1343 32.8876C95.1716 32.8217 95.2392 32.7435 95.337 32.6528C95.5007 32.4891 95.6803 32.3504 95.8742 32.2401C96.0681 32.1298 96.2584 32.0427 96.4487 31.9804C96.6373 31.9182 96.8187 31.8755 96.9912 31.8506C97.1637 31.8257 97.3203 31.8132 97.4608 31.8132C97.9126 31.8132 98.2985 31.8684 98.6151 31.9804C98.9317 32.0907 99.1861 32.2437 99.38 32.4376C99.5739 32.6314 99.7126 32.8555 99.7998 33.1099C99.8869 33.3642 99.9296 33.6328 99.9296 33.9121V38.0226C99.9296 38.204 99.8104 38.2947 99.5721 38.2947C99.4067 38.2947 99.3088 38.2538 99.275 38.172C99.243 38.0902 99.2252 37.9746 99.2252 37.827V37.0621C99.1096 37.2275 98.9762 37.3823 98.825 37.5317C98.6721 37.6793 98.4978 37.8109 98.3003 37.9266C98.1029 38.0422 97.8788 38.1329 97.628 38.1987C97.3772 38.2645 97.0944 38.2965 96.7831 38.2965C96.0681 38.2965 95.5451 38.14 95.2161 37.827C94.887 37.5139 94.7216 37.103 94.7216 36.5926C94.7216 36.2884 94.7768 36.0091 94.8888 35.753C94.9991 35.4987 95.193 35.2781 95.4687 35.0931C95.7444 34.9081 96.1143 34.7623 96.5803 34.6556C97.0446 34.5488 97.6351 34.4919 98.3519 34.483L99.2359 34.467ZM98.3092 35.0842C97.724 35.0931 97.2491 35.1323 96.8845 35.2016C96.5181 35.271 96.2299 35.3688 96.0201 35.4915C95.8102 35.6143 95.6661 35.7655 95.5878 35.9416C95.5096 36.1194 95.4704 36.3133 95.4704 36.5285C95.4704 36.9234 95.5807 37.2151 95.803 37.4054C96.0254 37.5939 96.3989 37.69 96.9254 37.69C97.1477 37.69 97.3612 37.6598 97.5675 37.5975C97.7738 37.5353 97.9659 37.4552 98.1473 37.3574C98.3288 37.2596 98.4889 37.1422 98.6294 37.0052C98.7699 36.87 98.8891 36.7277 98.9869 36.5801C99.1505 36.3169 99.2341 35.9949 99.2341 35.6178V35.0753L98.3092 35.0842Z" fill="white"/>
<path d="M102.345 32.6527C102.245 32.6527 102.18 32.6243 102.148 32.5656C102.114 32.5086 102.098 32.4339 102.098 32.3432C102.098 32.2454 102.114 32.1671 102.148 32.1084C102.18 32.0515 102.245 32.0213 102.345 32.0213H103.122V30.6143C103.122 30.4738 103.133 30.3742 103.153 30.312C103.174 30.2497 103.211 30.2035 103.27 30.1697C103.336 30.1288 103.4 30.1003 103.462 30.0825C103.524 30.0665 103.592 30.0576 103.667 30.0576C103.782 30.0576 103.839 30.127 103.839 30.2675V32.0195H105.246C105.346 32.0195 105.41 32.048 105.444 32.1067C105.476 32.1636 105.493 32.2418 105.493 32.3414C105.493 32.4322 105.477 32.5069 105.444 32.5638C105.41 32.6207 105.346 32.6509 105.246 32.6509H103.839V36.637C103.839 37.0727 103.91 37.3716 104.054 37.5316C104.198 37.6917 104.444 37.7718 104.789 37.7718C104.937 37.7718 105.056 37.7575 105.146 37.7291C105.237 37.7006 105.319 37.665 105.394 37.6241C105.435 37.6081 105.476 37.5886 105.516 37.569C105.557 37.5494 105.598 37.5388 105.639 37.5388C105.705 37.5388 105.765 37.5761 105.819 37.649C105.872 37.7237 105.899 37.8091 105.899 37.9087C105.899 38.0741 105.781 38.1986 105.547 38.2858C105.312 38.373 105.022 38.4156 104.677 38.4156C104.142 38.4156 103.748 38.284 103.498 38.0208C103.247 37.7575 103.121 37.3787 103.121 36.886V32.6527H102.345Z" fill="white"/>
<path d="M107.911 30.0984C107.911 29.917 107.96 29.7818 108.058 29.6911C108.158 29.6004 108.277 29.5559 108.416 29.5559C108.556 29.5559 108.675 29.6004 108.773 29.6911C108.873 29.7818 108.921 29.917 108.921 30.0984C108.921 30.2709 108.871 30.4026 108.773 30.4933C108.675 30.584 108.554 30.6285 108.416 30.6285C108.275 30.6285 108.156 30.584 108.058 30.4933C107.96 30.4026 107.911 30.2709 107.911 30.0984ZM108.072 32.2951C108.072 32.1546 108.101 32.0603 108.16 32.0105C108.216 31.9607 108.304 31.9358 108.419 31.9358C108.535 31.9358 108.622 31.9607 108.684 32.0105C108.747 32.0603 108.777 32.1546 108.777 32.2951V37.9353C108.777 38.0758 108.747 38.1701 108.684 38.2199C108.622 38.2697 108.535 38.2946 108.419 38.2946C108.304 38.2946 108.218 38.2697 108.16 38.2199C108.103 38.1701 108.072 38.0758 108.072 37.9353V32.2951Z" fill="white"/>
<path d="M112.428 37.9355C112.428 38.076 112.398 38.1702 112.336 38.22C112.274 38.2698 112.187 38.2947 112.071 38.2947C111.955 38.2947 111.866 38.2698 111.806 38.22C111.745 38.1702 111.713 38.076 111.713 37.9355V32.2704C111.713 32.1387 111.744 32.0498 111.806 32.0053C111.868 31.9609 111.948 31.9377 112.046 31.9377C112.153 31.9377 112.24 31.9609 112.306 32.0053C112.371 32.0498 112.404 32.1387 112.404 32.2704V33.3927C112.453 33.286 112.532 33.1419 112.638 32.9605C112.745 32.7791 112.896 32.6047 113.088 32.4358C113.282 32.2668 113.515 32.1209 113.793 31.9982C114.068 31.8755 114.396 31.8132 114.774 31.8132C115.408 31.8132 115.92 31.9875 116.311 32.3379C116.703 32.6883 116.898 33.2326 116.898 33.9726V37.9959C116.898 38.1934 116.788 38.293 116.566 38.293C116.311 38.293 116.183 38.1951 116.183 37.9959V34.2447C116.183 33.6862 116.069 33.2575 115.843 32.9605C115.618 32.6652 115.212 32.5158 114.629 32.5158C114.243 32.5158 113.908 32.5976 113.629 32.7631C113.35 32.9285 113.12 33.1401 112.944 33.398C112.766 33.6577 112.638 33.9494 112.555 34.2749C112.473 34.6004 112.432 34.9188 112.432 35.2319V37.9355H112.428Z" fill="white"/>
<path d="M125.116 38.2928C125.116 39.1822 124.861 39.8474 124.351 40.2921C123.84 40.7367 123.157 40.9591 122.302 40.9591C121.964 40.9591 121.647 40.9253 121.352 40.8595C121.055 40.7937 120.804 40.7154 120.6 40.6247C120.411 40.5429 120.258 40.4593 120.143 40.3774C120.027 40.2956 119.97 40.1889 119.97 40.0573C119.97 39.9595 120.002 39.8634 120.068 39.7727C120.134 39.682 120.212 39.6375 120.303 39.6375C120.377 39.6375 120.456 39.6642 120.537 39.7176C120.619 39.7709 120.713 39.8261 120.822 39.8847C120.995 39.9826 121.201 40.0786 121.439 40.1693C121.678 40.2601 121.969 40.3045 122.316 40.3045C122.595 40.3045 122.86 40.2672 123.113 40.1942C123.364 40.1195 123.586 40.0004 123.78 39.8367C123.974 39.6713 124.125 39.4579 124.237 39.1946C124.347 38.9314 124.404 38.6094 124.404 38.2324V37.1349C124.182 37.5796 123.883 37.8997 123.51 38.0972C123.134 38.2946 122.693 38.3942 122.183 38.3942C121.747 38.3942 121.359 38.3124 121.023 38.147C120.685 37.9833 120.4 37.7557 120.166 37.4675C119.931 37.1794 119.755 36.8343 119.636 36.4306C119.516 36.0268 119.456 35.5839 119.456 35.0983C119.456 34.6127 119.518 34.1681 119.641 33.7661C119.764 33.3623 119.943 33.0173 120.178 32.7291C120.413 32.441 120.703 32.2169 121.048 32.0568C121.393 31.8967 121.784 31.8167 122.22 31.8167C122.747 31.8167 123.188 31.9216 123.54 32.1315C123.894 32.3414 124.185 32.6242 124.417 32.9764V32.2969C124.417 32.1564 124.447 32.0603 124.509 32.007C124.571 31.9536 124.659 31.9269 124.774 31.9269C124.89 31.9269 124.975 31.9536 125.034 32.007C125.091 32.0603 125.121 32.1564 125.121 32.2969V38.2928H125.116ZM120.228 35.1339C120.228 35.5199 120.272 35.8738 120.363 36.1958C120.454 36.5177 120.587 36.7916 120.765 37.0229C120.941 37.2523 121.162 37.4302 121.425 37.5529C121.688 37.6756 121.989 37.7379 122.327 37.7379C122.672 37.7379 122.976 37.6721 123.239 37.5404C123.502 37.4088 123.725 37.2256 123.906 36.9908C124.088 36.756 124.223 36.4768 124.314 36.1513C124.404 35.8258 124.449 35.4701 124.449 35.0841C124.449 34.2623 124.251 33.622 123.856 33.1649C123.462 32.7078 122.926 32.4801 122.252 32.4801C121.914 32.4801 121.619 32.5441 121.363 32.6722C121.108 32.8003 120.895 32.9817 120.728 33.2147C120.559 33.4495 120.432 33.7287 120.351 34.0542C120.269 34.3797 120.228 34.739 120.228 35.1339Z" fill="white"/>
<path d="M132.2 29.9259C132.2 29.7854 132.232 29.6893 132.3 29.636C132.366 29.5826 132.456 29.5559 132.572 29.5559C132.688 29.5559 132.778 29.5826 132.844 29.636C132.91 29.6893 132.944 29.7854 132.944 29.9259V37.528H137.399C137.588 37.528 137.684 37.6382 137.684 37.8606C137.684 38.0918 137.59 38.2056 137.399 38.2056H132.599C132.335 38.2056 132.204 38.074 132.204 37.8108V29.9259H132.2Z" fill="white"/>
<path d="M139.777 30.0984C139.777 29.917 139.827 29.7818 139.925 29.6911C140.025 29.6004 140.144 29.5559 140.283 29.5559C140.423 29.5559 140.542 29.6004 140.64 29.6911C140.74 29.7818 140.788 29.917 140.788 30.0984C140.788 30.2709 140.738 30.4026 140.64 30.4933C140.542 30.584 140.421 30.6285 140.283 30.6285C140.142 30.6285 140.023 30.584 139.925 30.4933C139.827 30.4026 139.777 30.2709 139.777 30.0984ZM139.937 32.2951C139.937 32.1546 139.966 32.0603 140.025 32.0105C140.082 31.9607 140.169 31.9358 140.284 31.9358C140.4 31.9358 140.487 31.9607 140.549 32.0105C140.612 32.0603 140.642 32.1546 140.642 32.2951V37.9353C140.642 38.0758 140.612 38.1701 140.549 38.2199C140.487 38.2697 140.4 38.2946 140.284 38.2946C140.169 38.2946 140.083 38.2697 140.025 38.2199C139.968 38.1701 139.937 38.0758 139.937 37.9353V32.2951Z" fill="white"/>
<path d="M145.592 30.0113C145.304 30.0113 145.062 30.0931 144.864 30.2586C144.667 30.424 144.567 30.7228 144.567 31.1603V32.0248H145.912C146.076 32.0248 146.159 32.1315 146.159 32.3449C146.159 32.5513 146.078 32.6527 145.912 32.6527H144.567V37.9353C144.567 38.0759 144.537 38.1701 144.475 38.2199C144.413 38.2697 144.325 38.2946 144.21 38.2946C144.094 38.2946 144.009 38.2697 143.95 38.2199C143.893 38.1701 143.863 38.0759 143.863 37.9353V32.6527H143.073C142.974 32.6527 142.908 32.6242 142.876 32.5655C142.842 32.5086 142.826 32.4339 142.826 32.3432C142.826 32.2453 142.842 32.1671 142.876 32.1084C142.908 32.0515 142.974 32.0212 143.073 32.0212H143.863V31.0714C143.863 30.5858 144.012 30.191 144.313 29.8868C144.614 29.5827 145.048 29.4297 145.615 29.4297C145.772 29.4297 145.928 29.4439 146.085 29.4724C146.241 29.5008 146.376 29.54 146.492 29.5898C146.608 29.6396 146.702 29.6983 146.777 29.7694C146.851 29.8406 146.887 29.9153 146.887 29.9971C146.887 30.1038 146.864 30.191 146.819 30.2568C146.775 30.3226 146.718 30.3546 146.652 30.3546C146.602 30.3546 146.547 30.3404 146.485 30.3119C146.423 30.2835 146.355 30.2479 146.282 30.207C146.191 30.1572 146.095 30.1127 145.992 30.0718C145.889 30.0327 145.756 30.0113 145.592 30.0113Z" fill="white"/>
<path d="M153.452 34.8867C153.452 34.9934 153.422 35.0699 153.359 35.1144C153.297 35.1589 153.217 35.182 153.119 35.182H148.516C148.532 36.0055 148.728 36.6423 149.103 37.0958C149.477 37.5476 150.014 37.7753 150.713 37.7753C150.992 37.7753 151.229 37.7451 151.422 37.6828C151.616 37.6206 151.78 37.5423 151.917 37.448C152.052 37.3538 152.166 37.2506 152.257 37.1403C152.347 37.03 152.426 36.9251 152.491 36.8255C152.541 36.7597 152.582 36.7099 152.614 36.6779C152.646 36.6458 152.696 36.6281 152.762 36.6281C152.844 36.6281 152.925 36.653 153.009 36.7028C153.091 36.7526 153.132 36.8219 153.132 36.9126C153.132 37.0105 153.091 37.119 153.009 37.2328C152.934 37.3484 152.838 37.4729 152.719 37.6099C152.6 37.7451 152.447 37.8731 152.262 37.9923C152.077 38.1115 151.856 38.2129 151.602 38.2947C151.348 38.3765 151.051 38.4174 150.713 38.4174C150.227 38.4174 149.802 38.3374 149.436 38.1773C149.069 38.0172 148.763 37.7913 148.516 37.4978C148.269 37.2061 148.082 36.8575 147.954 36.4555C147.826 36.0518 147.762 35.6035 147.762 35.1108C147.762 34.6342 147.83 34.1913 147.966 33.7839C148.102 33.3766 148.297 33.0298 148.553 32.7416C148.808 32.4535 149.115 32.2276 149.473 32.0622C149.831 31.8985 150.233 31.8149 150.677 31.8149C151.129 31.8149 151.529 31.895 151.874 32.0551C152.219 32.2151 152.509 32.4339 152.744 32.7096C152.979 32.9853 153.155 33.3108 153.274 33.6843C153.393 34.0579 153.452 34.4598 153.452 34.8867ZM150.663 32.4428C150.325 32.4428 150.03 32.4997 149.774 32.6153C149.519 32.731 149.304 32.8875 149.132 33.0849C148.959 33.2824 148.824 33.5136 148.724 33.775C148.625 34.0383 148.564 34.314 148.539 34.6021H152.735C152.71 34.314 152.652 34.0401 152.555 33.7822C152.461 33.5225 152.33 33.2948 152.161 33.0974C151.992 32.8999 151.784 32.7416 151.538 32.6225C151.293 32.5033 151.001 32.4428 150.663 32.4428Z" fill="white"/>
</svg>
