<svg width="88" height="99" viewBox="0 0 88 99" fill="none" xmlns="http://www.w3.org/2000/svg">
<g clip-path="url(#clip0_71_106)">
<path d="M43.6951 17.3641C43.2969 17.3641 42.958 17.1366 42.8987 16.8277C41.745 10.7668 41.025 10.2046 33.2641 9.30356C32.8699 9.25825 32.5771 8.99361 32.5771 8.68161C32.5771 8.36961 32.8685 8.106 33.2641 8.05967C41.025 7.15867 41.745 6.59542 42.8987 0.535564C42.9567 0.22768 43.2956 -0.000915527 43.6951 -0.000915527C44.0946 -0.000915527 44.4322 0.226651 44.4915 0.535564C45.6452 6.59645 46.3651 7.15867 54.1261 8.05967C54.5203 8.10497 54.813 8.36961 54.813 8.68161C54.813 8.99361 54.5216 9.25722 54.1261 9.30356C46.3651 10.2046 45.6452 10.7668 44.4915 16.8277C44.4335 17.1355 44.0946 17.3641 43.6951 17.3641ZM37.7551 8.68161C39.5285 9.03892 40.7534 9.49714 41.7015 10.2385C42.6495 10.9789 43.2376 11.9365 43.6951 13.3205C44.1526 11.9355 44.7394 10.9789 45.6887 10.2385C46.6368 9.49817 47.863 9.03892 49.6351 8.68161C47.8617 8.3243 46.6368 7.86608 45.6887 7.12469C44.7407 6.38433 44.1526 5.42669 43.6951 4.04276C43.2376 5.42772 42.6508 6.38433 41.7015 7.12469C40.7534 7.86505 39.5272 8.3243 37.7551 8.68161Z" fill="#0061B2"/>
<path d="M67.609 20.6663C67.2108 20.6663 66.872 20.4387 66.8126 20.1298C66.011 15.9204 65.5772 15.5816 60.187 14.9555C59.7927 14.9102 59.5 14.6456 59.5 14.3336C59.5 14.0216 59.7914 13.758 60.187 13.7116C65.5772 13.0856 66.011 12.7468 66.8126 8.53733C66.8706 8.22945 67.2095 8.00085 67.609 8.00085C68.0085 8.00085 68.3461 8.22842 68.4054 8.53733C69.2071 12.7468 69.6409 13.0856 75.0311 13.7116C75.4253 13.758 75.7181 14.0216 75.7181 14.3336C75.7181 14.6456 75.4267 14.9092 75.0311 14.9555C69.6409 15.5816 69.2071 15.9204 68.4054 20.1298C68.3474 20.4377 68.0085 20.6663 67.609 20.6663ZM64.2322 14.3346C65.1302 14.5714 65.8066 14.8731 66.363 15.3077C66.9194 15.7422 67.3058 16.2705 67.609 16.9717C67.9123 16.2705 68.2986 15.7422 68.8551 15.3077C69.4115 14.8731 70.0879 14.5714 70.9858 14.3346C70.0879 14.0978 69.4115 13.7961 68.8551 13.3615C68.2986 12.927 67.9123 12.3988 67.609 11.6975C67.3058 12.3988 66.9194 12.927 66.363 13.3615C65.8066 13.7961 65.1302 14.0978 64.2322 14.3346Z" fill="#0061B2"/>
<path d="M18.0036 20.6663C17.6054 20.6663 17.2665 20.4387 17.2072 20.1298C16.4055 15.9204 15.9717 15.5816 10.5815 14.9555C10.1872 14.9102 9.89453 14.6456 9.89453 14.3336C9.89453 14.0216 10.1859 13.758 10.5815 13.7116C15.9717 13.0856 16.4055 12.7468 17.2072 8.53733C17.2652 8.22945 17.604 8.00085 18.0036 8.00085C18.4031 8.00085 18.7406 8.22842 18.8 8.53733C19.6016 12.7468 20.0354 13.0856 25.4256 13.7116C25.8199 13.758 26.1126 14.0216 26.1126 14.3336C26.1126 14.6456 25.8212 14.9092 25.4256 14.9555C20.0354 15.5816 19.6016 15.9204 18.8 20.1298C18.7419 20.4377 18.4031 20.6663 18.0036 20.6663ZM14.6268 14.3346C15.5247 14.5714 16.2011 14.8731 16.7575 15.3077C17.314 15.7422 17.7003 16.2705 18.0036 16.9717C18.3068 16.2705 18.6932 15.7422 19.2496 15.3077C19.806 14.8731 20.4824 14.5714 21.3803 14.3346C20.4824 14.0978 19.806 13.7961 19.2496 13.3615C18.6932 12.927 18.3068 12.3988 18.0036 11.6975C17.7003 12.3988 17.314 12.927 16.7575 13.3615C16.2011 13.7961 15.5247 14.0978 14.6268 14.3346Z" fill="#0061B2"/>
</g>
<path d="M46.156 99L1.41001 57.1847C0.949836 56.7545 0.922146 56.0298 1.34804 55.5662C1.77392 55.1012 2.49121 55.0733 2.95138 55.5036L46.0954 95.8228L85.9734 55.5342C86.4164 55.0866 87.135 55.0866 87.5767 55.5342C88.0197 55.9818 88.0197 56.7065 87.5767 57.1541L46.156 99Z" fill="#0061B2"/>
<path d="M86.775 57.4886C86.4045 57.4886 86.0419 57.3061 85.8243 56.9704L71.1397 34.293H19.7153L3.09245 57.0237C2.72062 57.5326 2.00993 57.6405 1.50625 57.2648C1.00256 56.8892 0.89576 56.1711 1.26759 55.6622L18.5695 32.0004H72.366L87.723 55.7155C88.0659 56.2457 87.9195 56.9558 87.3947 57.3021C87.2035 57.4287 86.9873 57.4886 86.775 57.4886Z" fill="#0061B2"/>
<path d="M86.7722 57.4885H4.21695C3.59065 57.4885 3.08301 56.9756 3.08301 56.3429C3.08301 55.7101 3.59065 55.1972 4.21695 55.1972H86.7722C87.3985 55.1972 87.9061 55.7101 87.9061 56.3429C87.9061 56.9756 87.3985 57.4885 86.7722 57.4885Z" fill="#0061B2"/>
<path d="M45.2193 96.1492C44.8013 96.1492 44.3979 95.9147 44.2014 95.5084L25.1445 56.3841L34.5365 33.371C34.7752 32.7862 35.4384 32.5065 36.0172 32.7489C36.5961 32.99 36.8716 33.6601 36.633 34.2449L27.6313 56.3016L46.2359 94.4973C46.5128 95.0648 46.2808 95.7522 45.7191 96.032C45.5582 96.1119 45.3868 96.1505 45.2193 96.1505V96.1492Z" fill="#0061B2"/>
<path d="M46.2064 96.4729C46.0468 96.4729 45.8847 96.4382 45.7317 96.3663C45.1634 96.1012 44.9155 95.4205 45.1779 94.845L62.8121 56.3162L53.5335 33.5828C53.2949 32.998 53.5704 32.3279 54.1493 32.0868C54.7281 31.8457 55.3913 32.1241 55.63 32.7089L65.2857 56.3681L47.2348 95.8055C47.0437 96.2238 46.6336 96.4702 46.2051 96.4702L46.2064 96.4729Z" fill="#0061B2"/>
<path d="M45.4963 93.3343C44.8699 93.3343 44.3623 92.8215 44.3623 92.1887V33.1459C44.3623 32.5131 44.8699 32.0002 45.4963 32.0002C46.1226 32.0002 46.6302 32.5131 46.6302 33.1459V92.1887C46.6302 92.8215 46.1226 93.3343 45.4963 93.3343Z" fill="#0061B2"/>
<defs>
<clipPath id="clip0_71_106">
<rect width="86.8629" height="79.1096" fill="white"/>
</clipPath>
</defs>
</svg>
