<svg width="99" height="93" viewBox="0 0 99 93" fill="none" xmlns="http://www.w3.org/2000/svg">
<g clip-path="url(#clip0_402_5272)">
<path d="M28.8769 16.3352C28.5374 16.3352 28.2062 16.1508 28.014 15.8141L23.0971 7.20728C22.8012 6.69 22.9485 6.01139 23.4236 5.69001C23.8999 5.36863 24.5247 5.52868 24.8205 6.04468L29.7375 14.6515C30.0334 15.1688 29.886 15.8474 29.4109 16.1687C29.2447 16.2814 29.0596 16.3339 28.8769 16.3339V16.3352Z" fill="#0061B2"/>
<path d="M49.512 12.0318C48.9521 12.0318 48.4971 11.5388 48.4971 10.9294V1.10236C48.4971 0.49417 48.9509 -6.10352e-05 49.512 -6.10352e-05C50.0732 -6.10352e-05 50.527 0.49289 50.527 1.10236V10.9294C50.527 11.5376 50.0732 12.0318 49.512 12.0318Z" fill="#0061B2"/>
<path d="M70.1249 16.3352C69.9422 16.3352 69.7571 16.2814 69.5909 16.17C69.1146 15.8486 68.9685 15.17 69.2644 14.6528L74.1813 6.04596C74.4772 5.52868 75.102 5.36992 75.5782 5.69129C76.0545 6.01267 76.2006 6.69128 75.9047 7.20856L70.9878 15.8154C70.7957 16.1521 70.4644 16.3365 70.1249 16.3365V16.3352Z" fill="#0061B2"/>
<path d="M49.4906 12.0318C48.9306 12.0318 48.4756 11.5388 48.4756 10.9294V1.10236C48.4756 0.49417 48.9294 -6.10352e-05 49.4906 -6.10352e-05C50.0517 -6.10352e-05 50.5055 0.49289 50.5055 1.10236V10.9294C50.5055 11.5376 50.0517 12.0318 49.4906 12.0318Z" fill="#0061B2"/>
<path d="M75.0449 87.475C74.7054 87.475 74.3741 87.2906 74.182 86.9539L69.265 78.3471C68.9692 77.8298 69.1165 77.1512 69.5916 76.8298C70.0678 76.5085 70.6926 76.6685 70.9885 77.1845L75.9054 85.7913C76.2013 86.3086 76.054 86.9872 75.5789 87.3086C75.4127 87.4212 75.2276 87.4737 75.0449 87.4737V87.475Z" fill="#0061B2"/>
<path d="M49.4906 92.9999C48.9306 92.9999 48.4756 92.507 48.4756 91.8975V82.0705C48.4756 81.4623 48.9294 80.9681 49.4906 80.9681C50.0517 80.9681 50.5055 81.461 50.5055 82.0705V91.8975C50.5055 92.5057 50.0517 92.9999 49.4906 92.9999Z" fill="#0061B2"/>
<path d="M23.9579 87.4755C23.7752 87.4755 23.5901 87.4217 23.4239 87.3103C22.9476 86.9889 22.8015 86.3103 23.0974 85.793L28.0143 77.1862C28.3102 76.6689 28.935 76.5102 29.4112 76.8316C29.8875 77.1529 30.0336 77.8315 29.7378 78.3488L24.8208 86.9556C24.6287 87.2924 24.2974 87.4767 23.9579 87.4767V87.4755Z" fill="#0061B2"/>
<path d="M49.512 92.9999C48.9521 92.9999 48.4971 92.507 48.4971 91.8975V82.0705C48.4971 81.4623 48.9509 80.9681 49.512 80.9681C50.0732 80.9681 50.527 81.461 50.527 82.0705V91.8975C50.527 92.5057 50.0732 92.9999 49.512 92.9999Z" fill="#0061B2"/>
<path d="M97.9859 47.5819C97.7312 47.5819 97.4766 47.4782 97.2797 47.2708C80.9411 30.0649 63.8856 21.8064 46.5874 22.7244C32.7608 23.4581 21.3308 30.0547 14.1776 35.4605C6.39134 41.3439 1.83395 47.1338 1.78915 47.1914C1.42725 47.6549 0.787142 47.7125 0.359224 47.3195C-0.0686942 46.9264 -0.121742 46.2311 0.240161 45.7664C0.429954 45.5231 4.97673 39.7383 12.961 33.6935C17.6504 30.143 22.552 27.2519 27.5291 25.0983C33.764 22.4005 40.1356 20.8614 46.4671 20.5234C47.3748 20.4748 48.2837 20.4504 49.1902 20.4504C66.1396 20.4504 82.7777 28.9292 98.692 45.6882C99.094 46.1121 99.1046 46.8099 98.7144 47.2465C98.5152 47.4693 98.2511 47.5819 97.9859 47.5819Z" fill="#0061B2"/>
<path d="M49.8102 72.5483C32.8608 72.5483 16.2227 64.0695 0.308395 47.3105C-0.0935887 46.8866 -0.104198 46.1888 0.285997 45.7522C0.676193 45.3156 1.31866 45.3041 1.72064 45.7279C18.0593 62.9338 35.1159 71.1923 52.413 70.2743C66.2396 69.5406 77.6696 62.944 84.8228 57.5382C92.6091 51.6548 97.1665 45.8649 97.2113 45.806C97.5732 45.3425 98.2133 45.2849 98.6412 45.678C99.0691 46.071 99.1221 46.7663 98.7602 47.2311C98.5705 47.4743 94.0237 53.2592 86.0394 59.3039C81.35 62.8544 76.4484 65.7455 71.4713 67.8992C65.2364 70.5969 58.8636 72.136 52.5333 72.474C51.6256 72.5227 50.7167 72.547 49.8113 72.547L49.8102 72.5483Z" fill="#0061B2"/>
<path d="M49.5008 70.848C46.4747 70.848 43.5394 70.2039 40.775 68.9338C38.1061 67.7072 35.7084 65.9518 33.6501 63.7162C31.5919 61.4806 29.9757 58.8763 28.8463 55.9775C27.6769 52.975 27.084 49.7868 27.084 46.5C27.084 43.2133 27.6769 40.0251 28.8463 37.0226C29.9757 34.1238 31.5919 31.5195 33.6501 29.2839C35.7084 27.0483 38.1061 25.2929 40.775 24.0663C43.5394 22.7961 46.4747 22.1521 49.5008 22.1521C52.5268 22.1521 55.4622 22.7961 58.2265 24.0663C60.8954 25.2929 63.2932 27.0483 65.3514 29.2839C67.4097 31.5195 69.0259 34.1238 70.1552 37.0226C71.3246 40.0251 71.9176 43.2133 71.9176 46.5C71.9176 49.7868 71.3246 52.975 70.1552 55.9775C69.0259 58.8776 67.4097 61.4806 65.3514 63.7162C63.2932 65.9518 60.8954 67.7072 58.2265 68.9338C55.4622 70.2039 52.5268 70.848 49.5008 70.848ZM49.5008 24.3569C38.2594 24.3569 29.1128 34.2902 29.1128 46.5013C29.1128 58.7124 38.2582 68.6457 49.5008 68.6457C60.7433 68.6457 69.8888 58.7124 69.8888 46.5013C69.8888 34.2902 60.7433 24.3569 49.5008 24.3569Z" fill="#0061B2"/>
<path d="M49.2218 58.7969C48.9919 58.7969 48.7609 58.7892 48.5287 58.7751C41.8894 58.3641 36.7957 52.1645 37.1741 44.9533L37.1764 44.9174L37.2495 43.5577L38.459 43.9239C38.9023 44.057 39.3608 44.139 39.8218 44.1671C43.3889 44.3874 46.4574 41.4143 46.6614 37.5385C46.7191 36.4361 46.5459 35.367 46.1474 34.3606L45.6499 33.1071L46.883 32.8433C47.872 32.6321 48.887 32.5578 49.9008 32.6205C56.54 33.0316 61.6338 39.2312 61.2554 46.4424C60.8911 53.4013 55.5604 58.7969 49.2218 58.7969ZM39.1993 46.3195C39.4823 51.7714 43.5068 56.2579 48.6442 56.5754C54.167 56.9173 58.9142 52.3155 59.229 46.3169C59.5437 40.3195 55.307 35.1621 49.7841 34.8203C49.3326 34.7921 48.8811 34.7972 48.4332 34.8343C48.6513 35.7511 48.7361 36.6986 48.6854 37.664C48.4285 42.5743 44.6668 46.3822 40.1943 46.3822C40.0316 46.3822 39.8689 46.3771 39.7051 46.3668C39.5353 46.3566 39.3667 46.34 39.1982 46.3195H39.1993Z" fill="#0061B2"/>
</g>
<defs>
<clipPath id="clip0_402_5272">
<rect width="99" height="93" fill="white"/>
</clipPath>
</defs>
</svg>
