<?xml version="1.0" encoding="UTF-8"?>
<svg id="Layer_2" data-name="Layer 2" xmlns="http://www.w3.org/2000/svg" viewBox="0 0 699.27 155.27">
  <defs>
    <style>
      .cls-1 {
        fill: #fff;
      }

      .cls-1, .cls-2 {
        stroke-width: 0px;
      }

      .cls-2 {
        fill: #f2994a;
      }
    </style>
  </defs>
  <g id="Layer_1-2" data-name="Layer 1">
    <g>
      <g>
        <path class="cls-1" d="m167.68,106.86c.87-8.53,8.73-15.66,17.26-15.66h20.75l.77-7.51h-36.41l9.62-19.35h37.3c8.53,0,14.93,7.13,14.05,15.66l-5.25,51.17h-44.93c-8.53,0-14.93-7.13-14.05-15.66l.89-8.66Zm35.77,6.24l.86-8.4h-13.49l-.86,8.4h13.49Z"/>
        <path class="cls-1" d="m247.31,55.18c.87-8.53,8.73-15.66,17.26-15.66h25.46l-8.98,18.08h-9.8l-.69,6.75h14.38l-9.62,19.35h-6.75l-4.87,47.48h-24.19l4.87-47.48h-7.51l9.49-19.35.94-9.17Z"/>
        <path class="cls-1" d="m282.49,106.86c.87-8.53,8.73-15.66,17.26-15.66h20.75l.77-7.51h-36.41l9.62-19.35h37.3c8.53,0,14.93,7.13,14.05,15.66l-5.25,51.17h-44.93c-8.53,0-14.93-7.13-14.05-15.66l.89-8.66Zm35.77,6.24l.86-8.4h-13.49l-.86,8.4h13.49Z"/>
        <path class="cls-1" d="m356.02,80c.88-8.53,8.73-15.66,17.26-15.66h30.17l-9.62,19.35h-14l-4.87,47.48h-24.18l5.25-51.17Z"/>
        <path class="cls-1" d="m407.52,64.35h24.19l-6.85,66.83h-24.19l6.85-66.83Zm2.54-24.82h24.19l-1.79,17.44h-24.19l1.79-17.44Z"/>
        <path class="cls-2" d="m501.56,115.52c-.87,8.53-8.73,15.66-17.26,15.66h-48.75l9.4-91.65h24.19l-2.54,24.82h24.57c8.53,0,14.93,7.13,14.05,15.66l-3.64,35.52Zm-24.07-1.15l3.41-33.22h-16.04l-3.41,33.22h16.04Z"/>
        <path class="cls-2" d="m516.48,64.35h24.18l-4.87,47.48h16.04l4.87-47.48h24.19l-6.85,66.83h-48.75c-8.53,0-14.93-7.13-14.05-15.66l5.25-51.17Z"/>
        <path class="cls-2" d="m581.67,131.17l8.98-18.08h28.26l.73-7.13h-18.2c-8.53,0-14.93-7.13-14.05-15.66l1.06-10.31c.88-8.53,8.73-15.66,17.26-15.66h44.68l-8.98,18.08h-29.02l-.69,6.75h18.2c8.53,0,14.93,7.13,14.05,15.66l-1.1,10.69c-.87,8.53-8.73,15.66-17.26,15.66h-43.92Z"/>
        <path class="cls-2" d="m669.5,131.17c-8.53,0-14.93-7.13-14.05-15.66l3.26-31.82h-7.51l9.49-19.35,1.11-10.82h24.18l-1.11,10.82h14.38l-9.62,19.35h-6.75l-2.88,28.13h14.77l-9.62,19.35h-15.66Z"/>
      </g>
      <g>
        <path class="cls-2" d="m152.74,120.1c.03,17.41-13.23,31.15-29.85,34.13-6.96,1.25-14.09,1.08-21.16.96-30.83-.56-61.68-.38-92.51-.34C4.13,154.85,0,150.72,0,145.63v-46.57c0-3.68.04-7.35.1-11.03-.02,1.35,5.28,5.54,6.3,6.6,2.25,2.33,4.5,4.64,6.78,6.94,4.68,4.73,9.41,9.41,14.2,14.03,8.72,8.41,17.36,18.54,29.02,22.78,11.15,4.05,23.04.16,30.59-8.76,7.09-8.38,10.04-20.31,6.26-31.01-.51-1.44-1.65-3.64-2.51-4.9-3.82-5.63-8.63-10.49-13.58-15.12-5.39-5.04-11.05-9.8-16.15-15.13-4.74-4.96-11.1-11.31-11.1-18.53,0-8.34,5.59-15.37,13.23-17.55,11.64-3.33,20.8,7.72,27.94,15.25,11.14,11.76,22.63,23.22,34.47,34.27,9.95,9.29,20.57,19.07,25.23,32.24,1.24,3.52,1.97,7.22,1.97,10.96Z"/>
        <path class="cls-1" d="m151.97,33.73c-.06,10.72-5.07,21.31-14.31,27.81-1.99,1.4-4.09,2.52-6.32,3.46-.99.42-12.83-12.97-14.25-14.37-4.96-4.91-9.93-9.83-14.95-14.66-10.19-9.82-20.37-23.38-36.22-21.09-13.38,1.93-24.87,13.51-27,26.8-.6,3.72-.44,7.54.49,11.19,1.84,7.21,6.83,11.96,11.8,17.27,5.76,6.16,11.97,11.87,17.99,17.77,7.5,7.34,16.22,14.51,13.3,26.37-1.88,7.64-9.16,13.22-16.88,13.88-9.77.83-15.01-6.7-21.18-12.88C29.63,100.46,14.81,85.66,0,70.85V9.21C0,4.12,4.12,0,9.21,0h113.07c9.19,0,18.86,7.22,23.83,14.45,4.01,5.83,5.9,12.58,5.86,19.28Z"/>
      </g>
    </g>
  </g>
</svg>